<?xml version="1.0" encoding="UTF-8"?>
<svg width="390px" height="72px" viewBox="0 0 390 72" version="1.1" xmlns="http://www.w3.org/2000/svg" xmlns:xlink="http://www.w3.org/1999/xlink">
    <!-- Generator: Sketch 51.2 (57519) - http://www.bohemiancoding.com/sketch -->
    <title>astri-logo-2</title>
    <desc>Created with Sketch.</desc>
    <defs></defs>
    <g id="Home" stroke="none" stroke-width="1" fill="none" fill-rule="evenodd">
        <g id="index" transform="translate(-200.000000, -16.000000)" fill-rule="nonzero">
            <g id="Header">
                <g id="Group-77" transform="translate(192.000000, 16.000000)">
                    <g id="astri-logo-2" transform="translate(8.000000, 0.000000)">
                        <g id="Shape">
                            <path d="M181.758734,21.1730233 C181.631004,21.0306977 181.469214,20.8465116 181.281878,20.6539535 C181.209745,20.5976323 181.161242,20.5171601 181.145633,20.427907 L181.145633,20.3609302 L181.20524,20.3609302 C182.072284,20.1298983 182.925201,19.8503735 183.759825,19.5237209 C184.489239,19.2012179 185.187497,18.8145272 185.84607,18.3683721 C186.250103,18.051381 186.631361,17.7073048 186.987118,17.3386047 L181.758734,17.3386047 C181.682096,17.3386047 181.49476,17.3386047 181.49476,17.0288372 L181.49476,16.5767442 C181.49476,16.292093 181.682096,16.2586047 181.758734,16.2586047 L187.472489,16.2586047 L187.472489,15.0613953 C186.229258,15.1451163 184.917904,15.1869767 183.657642,15.1869767 C183.505345,15.1930253 183.368412,15.096368 183.325546,14.9525581 C183.233037,14.7698025 183.127763,14.5935668 183.01048,14.4251163 C183.01048,14.1404651 183.189301,14.1153488 183.265939,14.1153488 C185.471397,14.1153488 187.072271,14.0651163 188.008952,13.9813953 C189.336285,13.9255014 190.653043,13.7233055 191.934498,13.3786047 C192.069285,13.3363345 192.210313,13.3165263 192.351747,13.32 C192.450918,13.3317435 192.542038,13.3795238 192.607205,13.4539535 C193.237336,14.1655814 193.237336,14.2074419 193.237336,14.2911628 C193.237336,14.5255814 193.092576,14.5506977 193.032969,14.5506977 L192.632751,14.492093 C191.338338,14.7662308 190.026995,14.9564083 188.707205,15.0613953 L188.707205,16.3423256 L194.472052,16.3423256 C194.54869,16.3423256 194.736026,16.3423256 194.736026,16.6604651 L194.736026,17.1125581 C194.736026,17.3972093 194.54869,17.4223256 194.472052,17.4223256 L189.260699,17.4223256 C189.712127,17.8411178 190.196132,18.2246093 190.708297,18.5693023 C191.386711,19.0433291 192.118115,19.4393986 192.88821,19.7497674 C193.57068,20.0359261 194.277304,20.2628376 195,20.427907 L195.068122,20.427907 L195.068122,20.5032558 C195.068122,20.5702326 195.068122,20.6623256 194.889301,20.7293023 C194.684934,20.9413953 194.497598,21.1423256 194.327293,21.332093 C194.250655,21.4409302 194.199563,21.4827907 194.131441,21.4827907 C193.190049,21.1675768 192.282947,20.7609165 191.423581,20.2688372 C190.700336,19.8726139 190.028436,19.3919208 189.422489,18.8372093 C189.158274,18.6270831 188.907982,18.4005753 188.673144,18.1590698 L188.673144,20.2688372 C188.673144,20.344186 188.673144,20.5283721 188.349563,20.5283721 L187.770524,20.5283721 C187.481004,20.5283721 187.455459,20.344186 187.455459,20.2688372 L187.455459,18.3767442 L187.208515,18.5776744 C186.72387,19.0246845 186.199507,19.4281543 185.641703,19.7832558 C184.992749,20.1846337 184.315483,20.5399552 183.615066,20.8465116 C183.110255,21.0982872 182.575283,21.2867384 182.022707,21.4074419 C181.912009,21.4074419 181.826856,21.2734884 181.758734,21.1730233 Z M191.423581,26.2381395 L191.423581,25.9869767 L184.875328,25.9869767 L184.875328,26.2381395 C184.875328,26.3134884 184.875328,26.4976744 184.551747,26.4976744 L183.981223,26.4976744 C183.700218,26.4976744 183.674672,26.3134884 183.674672,26.2381395 L183.674672,21.1060465 C183.664347,21.0219355 183.692665,20.9376734 183.751928,20.8761696 C183.811192,20.8146658 183.89524,20.7823129 183.981223,20.787907 L192.317686,20.787907 C192.59869,20.787907 192.624236,20.972093 192.624236,21.0474419 L192.624236,26.2381395 C192.624236,26.3134884 192.624236,26.4976744 192.317686,26.4976744 L191.747162,26.4976744 C191.474672,26.4976744 191.440611,26.3134884 191.440611,26.2381395 L191.423581,26.2381395 Z M191.423581,22.8893023 L191.423581,21.8511628 L184.875328,21.8511628 L184.875328,22.8725581 L191.423581,22.8893023 Z M184.875328,23.9106977 L184.875328,24.9237209 L191.423581,24.9237209 L191.423581,23.8939535 L184.875328,23.9106977 Z M198.312445,14.8855814 C198.743214,15.1362427 199.155776,15.4159841 199.547162,15.7227907 C199.606769,15.7227907 199.606769,15.7227907 200.058079,15.0697674 C200.134716,14.9609302 200.151747,14.935814 200.151747,14.9023256 C199.904803,14.7097674 199.606769,14.5004651 199.249127,14.2576744 C198.866197,14.0277939 198.46791,13.8236081 198.056987,13.6465116 C197.99738,13.6465116 197.937773,13.6883721 197.869651,13.7804651 C197.40131,14.3497674 197.40131,14.4251163 197.40131,14.4669767 L197.40131,14.4083721 L197.460917,14.4083721 C197.764086,14.5355539 198.054812,14.6896819 198.329476,14.8688372 L198.312445,14.8855814 Z M196.711572,25.292093 C196.710866,25.2039675 196.740922,25.1182695 196.796725,25.0493023 C197.075498,24.7610585 197.329018,24.4501869 197.554585,24.12 C197.928808,23.5476965 198.269959,22.9551308 198.576419,22.3451163 C198.874454,21.784186 199.138428,21.2651163 199.342795,20.787907 C199.342795,20.787907 199.402402,20.6204651 199.504585,20.6204651 C199.606769,20.6204651 199.65786,20.6204651 199.683406,20.8130233 C199.838731,21.0768612 199.961643,21.3578981 200.049563,21.6502326 C200.049118,21.7330311 200.025554,21.8141193 199.981441,21.8846512 C199.955092,21.9389656 199.932338,21.9948959 199.913319,22.052093 C200.214749,21.8544454 200.499511,21.6332662 200.764847,21.3906977 C201.176816,21.0215928 201.542702,20.6056518 201.854803,20.1516279 C202.033624,19.9004651 202.272052,19.5069767 202.578603,18.9627907 L200.424236,18.9627907 C200.347598,18.9627907 200.160262,18.9627907 200.160262,18.6613953 L200.160262,18.1925581 C200.160262,17.9246512 200.347598,17.8911628 200.424236,17.8911628 L202.808515,17.8911628 L202.808515,16.0827907 L200.824454,16.0827907 C200.747817,16.0827907 200.56048,16.0827907 200.56048,15.7646512 L200.56048,15.3293023 C200.56048,15.0446512 200.747817,15.0195349 200.824454,15.0195349 L202.808515,15.0195349 L202.808515,13.4706977 C202.808515,13.3869767 202.808515,13.2111628 203.115066,13.2111628 C204.094323,13.2111628 204.290175,13.3116279 204.290175,13.4706977 C204.290175,13.6297674 204.170961,13.7469767 204.094323,13.7637209 C204.017686,13.7804651 204.017686,13.8976744 204.017686,13.9730233 L204.017686,15.0195349 L206.316812,15.0195349 L206.316812,13.4706977 C206.316812,13.3869767 206.316812,13.2111628 206.614847,13.2111628 C207.611135,13.2111628 207.806987,13.3116279 207.806987,13.4706977 C207.806987,13.6297674 207.670742,13.7553488 207.594105,13.7637209 C207.517467,13.772093 207.517467,13.8976744 207.517467,13.9730233 L207.517467,15.0195349 L209.561135,15.0195349 C209.637773,15.0195349 209.808079,15.0195349 209.808079,15.3293023 L209.808079,15.7813953 C209.808079,16.0660465 209.637773,16.0995349 209.561135,16.0995349 L207.517467,16.0995349 L207.517467,17.8493023 L209.961354,17.8493023 C210.037991,17.8493023 210.216812,17.8493023 210.216812,18.1506977 L210.216812,18.5944186 C210.216812,18.8623256 210.037991,18.895814 209.961354,18.895814 L207.713319,18.895814 C207.91543,19.2490895 208.14309,19.5876351 208.394541,19.9088372 C208.689211,20.3187828 209.041896,20.6852705 209.441921,20.9972093 C209.74418,21.2532235 210.082645,21.4647322 210.446725,21.6251163 L210.497817,21.6251163 L210.497817,21.6837209 C210.495664,21.790735 210.417467,21.881595 210.31048,21.9013953 C210.137694,22.0759607 209.975618,22.2604723 209.825109,22.4539535 C209.739956,22.5627907 209.680349,22.6046512 209.620742,22.6046512 L209.569651,22.6046512 C209.086842,22.298689 208.646102,21.9328922 208.258297,21.5162791 L207.866594,21.064186 L207.866594,23.4418605 C207.872284,23.5263971 207.839377,23.6090322 207.776822,23.667299 C207.714266,23.7255657 207.628563,23.7534079 207.543013,23.7432558 L203.438646,23.7432558 L203.438646,24.6893023 C203.438646,25.0493023 203.651528,25.2251163 204.102838,25.2251163 L207.883624,25.2251163 C208.317904,25.2251163 208.564847,25.107907 208.641485,24.8734884 C208.787675,24.6119437 208.891122,24.3294229 208.948035,24.0362791 L208.948035,23.9106977 L209.058734,23.9860465 C209.270174,24.1598365 209.512758,24.2932857 209.774017,24.3795349 C209.919245,24.4050826 210.019649,24.5367026 210.00393,24.6809302 C209.922324,25.0928951 209.754103,25.4835613 209.510044,25.827907 C209.348253,26.1460465 208.905459,26.3218605 208.19869,26.3218605 L203.532314,26.3218605 C202.459389,26.3218605 202.237991,25.7860465 202.237991,25.3423256 L202.237991,21.5162791 C202.152838,21.6251163 202.067686,21.7255814 201.974017,21.8260465 C201.604311,22.2226441 201.202802,22.5894048 200.773362,22.9227907 C200.652594,22.9260849 200.5357,22.8807186 200.449782,22.7972093 C200.262445,22.6213953 200.075109,22.4623256 199.896288,22.3116279 C199.894026,22.2809705 199.894026,22.2501923 199.896288,22.2195349 C199.555677,23.0567442 199.215066,23.7851163 198.891485,24.4130233 C198.672593,24.8588782 198.428094,25.2921355 198.15917,25.7106977 C198.122356,25.8500557 198.105166,25.9937212 198.108079,26.1376744 C198.108079,26.372093 197.963319,26.3972093 197.903712,26.3972093 C197.844105,26.3972093 197.750437,26.3972093 196.907424,25.467907 C196.821635,25.4361459 196.751526,25.3732098 196.711572,25.292093 Z M203.438646,21.4493023 L203.438646,22.7553488 L206.648908,22.7553488 L206.648908,21.4074419 L203.438646,21.4493023 Z M207.355677,20.3776744 C207.33436,20.343493 207.317211,20.3069624 207.304585,20.2688372 C207.027474,19.847651 206.790863,19.4020056 206.597817,18.9376744 L203.898472,18.9376744 C203.600437,19.5237209 203.336463,20.0009302 203.132096,20.3525581 L207.355677,20.3776744 Z M206.316812,17.8660465 L206.316812,16.0827907 L204.017686,16.0827907 L204.017686,17.8325581 L206.316812,17.8660465 Z M197.656769,18.2595349 C198.104486,18.5235582 198.531446,18.8202031 198.934061,19.1469767 C198.993668,19.1469767 198.993668,19.1469767 199.444978,18.4939535 C199.49072,18.4484411 199.520544,18.3897973 199.530131,18.3265116 C199.266157,18.1172093 198.951092,17.8827907 198.59345,17.6316279 C198.208233,17.383323 197.807188,17.1596065 197.392795,16.9618605 C197.308078,16.9689206 197.232006,17.0156662 197.188428,17.0874419 C196.711572,17.6734884 196.711572,17.7404651 196.711572,17.7823256 L196.711572,17.7572093 L196.771179,17.7572093 C197.083711,17.8864144 197.380719,18.0492685 197.656769,18.2427907 L197.656769,18.2595349 Z M220.571397,23.0232558 C220.4936,23.0309621 220.424111,23.0744386 220.384061,23.1404651 C219.966812,23.6260465 219.966812,23.6846512 219.966812,23.7265116 L219.966812,23.7767442 L220.017904,23.7767442 C220.221336,23.9042382 220.412326,24.0499764 220.588428,24.212093 C220.899751,24.4627695 221.184992,24.7432145 221.439956,25.0493023 C221.499563,25.0493023 221.499563,25.0493023 221.899782,24.5051163 C221.976419,24.4130233 221.99345,24.3795349 221.99345,24.3460465 L221.380349,23.6762791 C221.126145,23.4355874 220.855895,23.2118349 220.571397,23.0065116 L220.571397,23.0232558 Z M212.183843,25.7023256 C212.132248,25.631681 212.105356,25.5464864 212.107205,25.4595349 C212.394061,24.9876164 212.617327,24.4810495 212.771397,23.9525581 C212.979736,23.2520267 213.125054,22.5348493 213.205677,21.8093023 C213.317579,20.8617737 213.368772,19.9082645 213.358952,18.9544186 L213.358952,14.5925581 C213.35056,14.5259768 213.373866,14.4593108 213.422117,14.4118706 C213.470369,14.3644304 213.538175,14.341517 213.605895,14.3497674 L219.030131,14.3497674 L219.030131,13.412093 C219.030131,13.3367442 219.030131,13.1693023 219.353712,13.1693023 C220.341485,13.1693023 220.528821,13.2530233 220.528821,13.412093 C220.545762,13.551073 220.454309,13.6805496 220.315939,13.7134884 C220.315939,13.7134884 220.247817,13.7804651 220.247817,13.9144186 L220.247817,14.3497674 L225.271834,14.3497674 C225.31441,14.3497674 225.467686,14.3497674 225.467686,14.5925581 L225.467686,15.0613953 C225.467686,15.3209302 225.348472,15.3627907 225.271834,15.3627907 L222.938646,15.3627907 C223.338865,15.5386047 223.338865,15.5637209 223.338865,15.6223256 C223.338865,15.6809302 223.270742,15.7981395 223.125983,15.8567442 C223.040185,15.867217 222.962875,15.9128233 222.9131,15.9823256 L222.708734,16.3088372 L224.829039,16.3088372 C224.880131,16.3088372 225.033406,16.3088372 225.033406,16.5683721 L225.033406,17.0204651 C225.033406,17.2465116 224.888646,17.2716279 224.829039,17.2716279 L222.44476,17.2716279 L222.44476,18.0586047 L224.650218,18.0586047 C224.70131,18.0586047 224.854585,18.0586047 224.854585,18.3181395 L224.854585,18.7702326 C224.854585,18.9962791 224.718341,19.0213953 224.650218,19.0213953 L222.44476,19.0213953 L222.44476,19.8586047 L224.650218,19.8586047 C224.70131,19.8586047 224.854585,19.8586047 224.854585,20.1013953 L224.854585,20.5534884 C224.854585,20.7795349 224.718341,20.8046512 224.650218,20.8046512 L222.44476,20.8046512 L222.44476,21.6418605 L225.229258,21.6418605 C225.271834,21.6418605 225.433624,21.6418605 225.433624,21.8846512 L225.433624,22.3367442 C225.433624,22.5711628 225.271834,22.587907 225.229258,22.587907 L219.515502,22.587907 C219.515502,22.6632558 219.515502,22.8474419 219.191921,22.8474419 L218.740611,22.8474419 C218.451092,22.8474419 218.417031,22.6632558 218.417031,22.587907 L218.417031,18.4018605 C218.178603,18.7032558 217.829476,19.0967442 217.361135,19.5823256 C217.253466,19.582107 217.151095,19.5363575 217.080131,19.4567442 L216.926856,19.3227907 L216.926856,22.4288372 C216.926856,22.5125581 216.926856,22.6883721 216.603275,22.6883721 L216.151965,22.6883721 C215.870961,22.6883721 215.845415,22.5125581 215.845415,22.4288372 L215.845415,19.0046512 L215.24083,19.5739535 C215.123224,19.5713616 215.013346,19.5158032 214.942795,19.4232558 C214.849127,19.347907 214.738428,19.264186 214.636245,19.172093 C214.646367,20.2927969 214.566645,21.4125423 214.397817,22.5209302 C214.29263,23.2907745 214.089512,24.0445812 213.793231,24.7646512 C213.634451,25.2245001 213.407793,25.6589092 213.120524,26.0539535 L213.077948,26.0539535 C213.016344,26.068213 212.952215,26.068213 212.890611,26.0539535 C212.727692,25.9188213 212.55073,25.8009601 212.362664,25.7023256 L212.183843,25.7023256 Z M214.517031,18.7702326 C214.80655,18.5106977 215.087555,18.2427907 215.368559,17.9330233 C215.79491,17.4983689 216.166572,17.0149007 216.475546,16.4930233 C216.696565,16.1287903 216.881895,15.74474 217.029039,15.3460465 L214.534061,15.3460465 L214.517031,18.7702326 Z M217.923144,16.015814 C217.628863,16.6624737 217.266399,17.2769991 216.841703,17.8493023 L216.841703,18.7367442 C217.057424,18.5190698 217.26179,18.2930233 217.454803,18.0586047 C217.848707,17.6028294 218.186016,17.1025642 218.459607,16.5683721 C218.655353,16.1852893 218.820481,15.7878103 218.953493,15.3795349 L217.940175,15.3795349 C218.340393,15.5888372 218.340393,15.6390698 218.340393,15.6976744 C218.348163,15.749971 218.331593,15.8029299 218.295269,15.8418897 C218.258945,15.8808495 218.206721,15.9016765 218.153057,15.8986047 C218.073806,15.9031301 217.999922,15.9394509 217.94869,15.9990698 L217.923144,16.015814 Z M220.179694,15.6976744 C220.185243,15.7435392 220.169092,15.7893728 220.135874,15.8220328 C220.102655,15.8546927 220.056038,15.8705716 220.009389,15.8651163 C219.933165,15.8718389 219.86275,15.9079596 219.813537,15.9655814 C219.762445,16.0911628 219.711354,16.2167442 219.651747,16.3339535 L221.456987,16.3339535 L221.601747,16.1413953 C221.76057,15.9011477 221.894639,15.6459324 222.001965,15.3795349 L219.813537,15.3795349 C220.179694,15.5637209 220.20524,15.6223256 220.20524,15.6809302 L220.179694,15.6976744 Z M219.489956,17.2967442 L219.489956,18.0837209 L221.320742,18.0837209 L221.320742,17.2967442 L219.489956,17.2967442 Z M219.489956,19.0465116 L219.489956,19.8837209 L221.320742,19.8837209 L221.320742,19.0465116 L219.489956,19.0465116 Z M219.489956,20.7962791 L219.489956,21.6334884 L221.320742,21.6334884 L221.320742,20.7962791 L219.489956,20.7962791 Z M223.253712,26.0623256 C223.36441,25.9953488 223.551747,25.7693023 223.917904,24.7646512 C223.917904,24.6725581 223.875328,24.5553488 223.679476,24.4967442 C223.474656,24.3785473 223.29531,24.2221259 223.151528,24.0362791 L223.049345,23.8772093 L222.998253,24.0613953 C222.75131,24.8986047 222.60655,25.1246512 222.529913,25.1832558 C222.453275,25.2418605 222.3,25.3423256 221.678384,25.3423256 L219.558079,25.3423256 C218.962009,25.3423256 218.893886,25.0660465 218.893886,24.8651163 L218.893886,23.8102326 C218.893886,23.8102326 218.893886,23.7265116 218.893886,23.7181395 C218.99168,23.677858 219.050669,23.5789226 219.038646,23.4753488 C219.038646,23.3748837 218.953493,23.3162791 218.800218,23.2995349 L217.94869,23.215814 C217.893022,23.2105644 217.83788,23.2300408 217.798337,23.2689194 C217.758793,23.3077979 217.738984,23.3620128 217.744323,23.4167442 L217.744323,25.3423256 C217.744323,25.9953488 218.297817,26.3218605 219.387773,26.3218605 L222.257424,26.3218605 C222.622656,26.3795934 222.995408,26.2788103 223.279258,26.0455814 L223.253712,26.0623256 Z M216.007205,23.1153488 C215.743231,23.1153488 215.700655,23.2409302 215.700655,23.2995349 C215.624322,23.8444621 215.457472,24.3733626 215.206769,24.8651163 C215.019827,25.2266566 214.788159,25.5640975 214.517031,25.8697674 C214.516276,25.9808234 214.600678,26.0746299 214.712882,26.0874419 C214.976413,26.1331148 215.235609,26.2003247 215.487773,26.2883721 C215.576145,26.2774137 215.657655,26.2358598 215.717686,26.1711628 C215.887991,25.9367442 216.058297,25.7023256 216.211572,25.4595349 C216.457477,24.9645107 216.629551,24.4372325 216.722489,23.8939535 C216.722489,23.8939535 216.782096,23.8018605 216.960917,23.7348837 C217.062152,23.6996989 217.130204,23.606029 217.131223,23.5004651 C217.131223,23.3916279 217.04607,23.2827907 216.015721,23.0651163 L216.007205,23.1153488 Z M224.232969,23.0316279 L224.190393,22.9813953 L224.130786,22.9813953 C223.398472,23.3330233 223.338865,23.4334884 223.338865,23.5172093 C223.719392,23.8717262 224.054012,24.2710172 224.335153,24.7060465 C224.526186,24.9607473 224.675585,25.2432214 224.777948,25.5432558 L224.777948,25.6186047 L224.8631,25.6186047 C225.774236,25.3674419 225.774236,25.3339535 225.774236,25.2586047 C225.615645,24.8943635 225.415686,24.5489147 225.178166,24.2288372 C224.906208,23.7999313 224.598608,23.3938939 224.258515,23.0148837 L224.232969,23.0316279 Z M229.444323,24.9655814 C229.231663,25.4829946 228.944924,25.9678912 228.592795,26.4055814 C228.528436,26.4208588 228.461302,26.4208588 228.396943,26.4055814 C228.241711,26.2530242 228.067129,26.1207721 227.877511,26.012093 C227.815511,25.9394984 227.78225,25.8473384 227.783843,25.7525581 C228.132091,25.236822 228.399078,24.6723104 228.575764,24.0781395 C228.827517,23.3122655 229.004302,22.5245034 229.103712,21.7255814 C229.222219,20.67765 229.276248,19.6236383 229.265502,18.5693023 L229.265502,14.0316279 C229.257493,13.9495308 229.287207,13.8682085 229.346523,13.8098907 C229.405838,13.7515728 229.488551,13.7223582 229.572052,13.7302326 L239.577511,13.7302326 C239.909607,13.7302326 239.952183,13.9227907 239.952183,14.0316279 L239.952183,24.8483721 C239.94824,25.3414887 239.647261,25.7853655 239.185808,25.9786047 C238.617972,26.2043956 238.01725,26.3400403 237.406114,26.3804651 C237.331879,26.3899834 237.257026,26.3680639 237.200185,26.320163 C237.143345,26.2722622 237.109865,26.2028854 237.108079,26.1293023 C237.05286,25.834481 236.946272,25.5512494 236.793013,25.292093 C236.793013,25.2502326 236.793013,25.1162791 237.022926,25.1162791 C238.121397,25.1162791 238.410917,25.0325581 238.487555,24.9739535 C238.651974,24.8708393 238.746526,24.6881201 238.734498,24.4967442 L238.734498,22.2027907 L235.166594,22.2027907 L235.166594,25.9032558 C235.166594,25.9786047 235.166594,26.1460465 234.860044,26.1460465 L234.28952,26.1460465 C234,26.1460465 233.965939,25.9786047 233.965939,25.9032558 L233.965939,22.2027907 L230.227729,22.2027907 L230.176638,22.4874419 C230.044466,23.341563 229.798236,24.1748019 229.444323,24.9655814 Z M233.923362,21.1060465 L233.923362,18.4688372 L230.415066,18.4688372 C230.415066,19.4734884 230.415066,20.3525581 230.321397,21.0893023 L233.923362,21.1060465 Z M233.923362,17.3888372 L233.923362,14.7934884 L230.415066,14.7934884 L230.415066,17.4055814 L233.923362,17.3888372 Z M238.691921,21.1060465 L238.691921,18.4688372 L235.124017,18.4688372 L235.124017,21.1060465 L238.691921,21.1060465 Z M238.691921,17.3888372 L238.691921,14.7934884 L235.124017,14.7934884 L235.124017,17.4055814 L238.691921,17.3888372 Z M251.209389,15.6474419 C251.709636,15.9903254 252.179637,16.3740058 252.61441,16.7944186 C252.674017,16.7944186 252.674017,16.7944186 253.125328,16.1330233 C253.201965,16.024186 253.218996,15.9990698 253.218996,15.9739535 L253.218996,15.932093 C252.920961,15.655814 252.571834,15.3544186 252.180131,15.0362791 C251.754112,14.7280281 251.307469,14.4483259 250.843231,14.1990698 L250.800655,14.1990698 C250.721281,14.203179 250.651531,14.252163 250.621834,14.3246512 C250.144978,14.9023256 250.144978,14.9693023 250.144978,15.0195349 L250.144978,15.0697674 L250.19607,15.0697674 C250.553577,15.2334128 250.893117,15.4325893 251.209389,15.664186 L251.209389,15.6474419 Z M250.95393,19.3227907 C251.457249,19.629019 251.93555,19.9733154 252.384498,20.3525581 C252.45262,20.3525581 252.461135,20.3525581 252.912445,19.6911628 C252.980568,19.5990698 252.989083,19.5572093 252.989083,19.532093 L252.989083,19.4902326 C252.691048,19.2474419 252.341921,18.9711628 251.933188,18.6530233 C251.492027,18.3627557 251.031118,18.1026091 250.553712,17.8744186 C250.468559,17.8744186 250.408952,17.9497674 250.366376,18.0083721 C249.88952,18.5776744 249.88952,18.6362791 249.88952,18.6865116 L249.88952,18.7451163 L249.949127,18.7451163 C250.302912,18.9106826 250.639438,19.1097636 250.95393,19.3395349 L250.95393,19.3227907 Z M249.370087,22.4455814 L249.370087,23.0148837 C249.370087,23.2995349 249.548908,23.3246512 249.634061,23.3246512 L253.891703,22.227907 L253.891703,26.2381395 C253.891703,26.3134884 253.891703,26.4976744 254.198253,26.4976744 L254.785808,26.4976744 C255.058297,26.4976744 255.092358,26.3134884 255.092358,26.2381395 L255.092358,21.9432558 L256.395197,21.6 C256.480349,21.6 256.650655,21.5581395 256.650655,21.2902326 L256.650655,20.7209302 C256.650655,20.4530233 256.463319,20.4195349 256.386681,20.4195349 L255.092358,20.7544186 L255.092358,14.0567442 C255.092358,13.9813953 255.092358,13.855814 255.168996,13.8474419 C255.306096,13.8182086 255.398217,13.6914086 255.381878,13.5544186 C255.381878,13.3869767 255.186026,13.2948837 254.198253,13.2948837 C253.917249,13.2948837 253.891703,13.4706977 253.891703,13.5544186 L253.891703,21.0893023 L249.634061,22.1944186 C249.531878,22.1525581 249.370087,22.1860465 249.370087,22.4455814 Z M242.958079,22.7804651 L243.579694,23.0734884 C243.668497,23.1296196 243.77217,23.1587424 243.877729,23.1572093 C244.326484,22.7188818 244.720927,22.2299032 245.052838,21.7004651 C245.291266,21.3488372 245.529694,20.9637209 245.751092,20.5534884 L245.751092,26.2632558 C245.751092,26.3386047 245.751092,26.5227907 246.066157,26.5227907 L246.645197,26.5227907 C246.917686,26.5227907 246.951747,26.3386047 246.951747,26.2632558 L246.951747,19.6409302 C247.19869,20.1013953 247.437118,20.4781395 247.65,20.8213953 C247.89959,21.1926558 248.200511,21.5279641 248.544105,21.8176744 C248.579756,21.8722464 248.640008,21.9065425 248.705895,21.9097674 L249.29345,21.4074419 C249.38086,21.3381208 249.431081,21.2331959 249.429694,21.1227907 C248.914401,20.6929842 248.456604,20.2006879 248.067249,19.6576744 C247.738159,19.1843251 247.453162,18.6827585 247.215721,18.1590698 L249.029476,18.1590698 C249.106114,18.1590698 249.29345,18.1590698 249.29345,17.8493023 L249.29345,17.3972093 C249.29345,17.1125581 249.106114,17.0790698 249.029476,17.0790698 L246.985808,17.0790698 L246.985808,15.1618605 C247.610894,14.9983157 248.207801,14.7443814 248.756987,14.4083721 L249.14869,14.4669767 C249.208297,14.4669767 249.336026,14.4669767 249.336026,14.2074419 C249.336026,14.1572093 249.336026,14.1153488 248.705895,13.3702326 C248.645075,13.2949538 248.556156,13.2467202 248.458952,13.2362791 C248.358064,13.2323009 248.259814,13.2685253 248.186463,13.3367442 C247.542944,13.8369329 246.776074,14.1604777 245.963974,14.2744186 C245.080152,14.4385208 244.180567,14.5059081 243.281659,14.4753488 C243.196507,14.4753488 243.017686,14.4753488 243.017686,14.7934884 C243.13994,14.9572669 243.242789,15.1342253 243.324236,15.3209302 C243.368001,15.4725517 243.513376,15.5736487 243.673362,15.5637209 C244.376547,15.562819 245.07802,15.4955335 245.768122,15.3627907 L245.768122,16.9116279 L243.324236,16.9116279 C243.239083,16.9116279 243.060262,16.9116279 243.060262,17.2297674 L243.060262,17.7572093 C243.060262,18.0418605 243.239083,18.0669767 243.324236,18.0669767 L245.623362,18.0669767 C245.479237,18.519989 245.308648,18.9644485 245.112445,19.3981395 C244.882713,19.9229518 244.597289,20.4224622 244.260917,20.8883721 C243.840202,21.4954481 243.354934,22.0567521 242.813319,22.5627907 C242.813319,22.5627907 242.779258,22.7804651 242.958079,22.7804651 Z M264.416594,16.1832558 L264.416594,15.7227907 C264.416594,15.4548837 264.595415,15.4213953 264.680568,15.4213953 L267.516157,15.4213953 L267.516157,13.4706977 C267.516157,13.3869767 267.516157,13.2111628 267.822707,13.2111628 C268.818996,13.2111628 269.014847,13.3116279 269.014847,13.4706977 C269.014847,13.6297674 268.878603,13.7553488 268.801965,13.7637209 C268.725328,13.772093 268.716812,13.8976744 268.716812,13.9730233 L268.716812,15.4213953 L271.680131,15.4213953 C271.756769,15.4213953 271.944105,15.4213953 271.944105,15.7227907 L271.944105,16.1832558 C271.944105,16.4595349 271.756769,16.4846512 271.680131,16.4846512 L268.716812,16.4846512 L268.716812,18.6865116 L270.930786,18.6865116 C271.051568,18.6885118 271.169441,18.7232789 271.271397,18.7869767 C271.492795,18.9544186 271.586463,19.0716279 271.586463,19.1804651 C271.455904,19.8134935 271.282371,20.4372147 271.067031,21.0474419 C270.837651,21.5962179 270.552354,22.1207528 270.215502,22.6130233 C269.965649,23.0055584 269.680677,23.3753963 269.363974,23.7181395 L269.270306,23.8186047 C269.751348,24.2346529 270.294033,24.5762438 270.879694,24.8316279 C271.235953,25.0062601 271.609824,25.1437533 271.995197,25.2418605 C272.148472,25.3088372 272.24214,25.3590698 272.24214,25.4427907 C272.24757,25.5455751 272.20339,25.64486 272.122926,25.7106977 L271.705677,26.2297674 C271.663279,26.32563 271.564924,26.3856515 271.458734,26.3804651 C271.160203,26.3214818 270.872889,26.2169634 270.607205,26.0706977 C269.789357,25.6776922 269.023054,25.1885333 268.325109,24.6139535 L268.018559,24.8483721 C267.558469,25.1679254 267.071307,25.448025 266.562445,25.6855814 C265.923494,25.9949407 265.25994,26.2525391 264.578384,26.455814 C264.447743,26.4615329 264.325306,26.39321 264.263319,26.28 C264.058952,26.1209302 263.84607,25.9702326 263.633188,25.8362791 C263.548035,25.735814 263.522489,25.6939535 263.522489,25.652093 C263.522489,25.6102326 263.522489,25.5181395 263.709825,25.4846512 C264.468309,25.2959817 265.208997,25.0439009 265.923799,24.7311628 C266.502631,24.503954 267.047011,24.1997204 267.541703,23.8269767 C267.096533,23.3106758 266.708334,22.7493949 266.383624,22.1525581 C266.005744,21.3865373 265.692465,20.5913082 265.446943,19.7748837 L264.757205,19.7748837 C264.680568,19.7748837 264.510262,19.7748837 264.510262,19.4651163 L264.510262,19.0130233 C264.510262,18.7283721 264.680568,18.6948837 264.757205,18.6948837 L267.550218,18.6948837 L267.550218,16.4846512 L264.714629,16.4846512 C264.595415,16.4846512 264.416594,16.4595349 264.416594,16.1832558 Z M267.31179,21.4827907 C267.600104,22.0530179 267.973192,22.5778455 268.418777,23.04 L268.776419,22.6716279 C269.125886,22.2479196 269.431133,21.7907362 269.687555,21.3069767 C269.910691,20.8077092 270.0957,20.2927969 270.241048,19.7665116 L266.605022,19.7665116 C266.784672,20.359363 267.02133,20.9340494 267.31179,21.4827907 Z M259.04345,22.9395349 C259.171179,22.9395349 259.290393,22.8139535 259.443668,22.5125581 C259.894978,22.3116279 260.346288,22.1023256 260.797598,21.8762791 L260.797598,24.8232558 C260.797598,25.0074419 260.737991,25.2586047 260.25262,25.2586047 C259.900566,25.25135 259.549947,25.2121133 259.20524,25.1413953 C259.151575,25.1383235 259.099352,25.1591505 259.063028,25.1981103 C259.026704,25.2370701 259.010134,25.290029 259.017904,25.3423256 C259.135978,25.5332237 259.227616,25.7387583 259.290393,25.9534884 C259.290393,26.2213953 259.401092,26.28 259.49476,26.28 L260.346288,26.28 C261.436245,26.28 261.981223,25.9116279 261.981223,25.1832558 L261.981223,21.2818605 C262.619869,20.9637209 263.267031,20.6204651 263.897162,20.2688372 C263.939738,20.2186047 263.982314,20.1181395 263.982314,19.4316279 C263.982533,19.3797343 263.960476,19.3301577 263.921567,19.2950916 C263.882659,19.2600255 263.830511,19.2427238 263.777948,19.2474419 C263.723695,19.2473111 263.671616,19.2683947 263.633188,19.3060465 C263.113755,19.5906977 262.551747,19.8837209 261.930131,20.1432558 L261.930131,17.1711628 L263.684279,17.1711628 C263.760917,17.1711628 263.948253,17.1711628 263.948253,16.8697674 L263.948253,16.4009302 C263.948253,16.1330233 263.760917,16.0995349 263.684279,16.0995349 L261.930131,16.0995349 L261.930131,14.3246512 C261.930131,14.0065116 262.006769,13.8055814 262.160044,13.7386047 C262.313319,13.6716279 262.389956,13.6548837 262.389956,13.5293023 C262.389956,13.4037209 262.270742,13.3618605 262.177074,13.32 L260.976419,13.1693023 C260.882751,13.1693023 260.610262,13.1693023 260.610262,13.3534884 C260.616002,13.4534346 260.636069,13.552083 260.669869,13.6465116 C260.718268,13.8494026 260.738322,14.0578316 260.729476,14.2660465 L260.729476,16.0827907 L258.856114,16.0827907 C258.779476,16.0827907 258.59214,16.0827907 258.59214,16.384186 L258.59214,16.8530233 C258.59214,17.1209302 258.779476,17.1544186 258.856114,17.1544186 L260.729476,17.1544186 L260.729476,20.6874419 C259.962141,21.0083314 259.177568,21.2878166 258.379258,21.5246512 L258.294105,21.5246512 L258.294105,21.6083721 C258.805022,22.8390698 258.932751,22.9395349 259.04345,22.9395349 Z M279.91441,19.0046512 L279.91441,18.5944186 C279.91441,18.3013953 280.093231,18.2762791 280.169869,18.2762791 L281.70262,18.2762791 L281.70262,14.6176744 L280.399782,14.6176744 C280.323144,14.6176744 280.135808,14.6176744 280.135808,14.3246512 L280.135808,13.8725581 C280.135808,13.587907 280.323144,13.5544186 280.399782,13.5544186 L287.126856,13.5544186 C287.203493,13.5544186 287.39083,13.5544186 287.39083,13.8725581 L287.39083,14.3246512 C287.39083,14.5925581 287.203493,14.6176744 287.126856,14.6176744 L285.943231,14.6176744 L285.943231,18.2427907 L287.348253,18.2427907 C287.424891,18.2427907 287.595197,18.2427907 287.595197,18.5609302 L287.595197,19.0046512 C287.595197,19.2893023 287.424891,19.3227907 287.348253,19.3227907 L285.934716,19.3227907 L285.934716,26.2381395 C285.934716,26.3134884 285.934716,26.4976744 285.628166,26.4976744 L285.040611,26.4976744 C284.768122,26.4976744 284.734061,26.3134884 284.734061,26.2381395 L284.734061,19.3227907 L282.89476,19.3227907 C282.892332,20.4524901 282.746443,21.5774712 282.46048,22.6716279 C282.259268,23.5472015 281.895543,24.3787831 281.387555,25.1246512 C281.063146,25.6611111 280.645192,26.1372176 280.152838,26.5311628 C280.085579,26.5462349 280.015731,26.5462349 279.948472,26.5311628 C279.795162,26.3799643 279.623576,26.2478157 279.437555,26.1376744 C279.383516,26.0682491 279.356351,25.982191 279.360917,25.8948837 C279.904349,25.4356626 280.357483,24.8823175 280.697817,24.2623256 C281.092292,23.5418732 281.379083,22.7692781 281.549345,21.9683721 C281.724225,21.1420507 281.815499,20.3007414 281.821834,19.4567442 L280.297598,19.4567442 C280.093231,19.3227907 279.91441,19.2893023 279.91441,19.0046512 Z M282.903275,14.6176744 L282.903275,18.2427907 L284.742576,18.2427907 L284.742576,14.6176744 L282.903275,14.6176744 Z M279.258734,24.2790698 L276.75524,24.2790698 L276.75524,25.3423256 C276.75524,25.4176744 276.75524,25.5851163 276.44869,25.5851163 L275.85262,25.5851163 C275.580131,25.5851163 275.554585,25.4176744 275.554585,25.3423256 L275.554585,21.1060465 C275.360082,21.5445211 275.141192,21.9721439 274.898908,22.3869767 L274.898908,22.4372093 L274.847817,22.4372093 C274.741611,22.4440559 274.636278,22.4144668 274.549782,22.3534884 L273.928166,22.0604651 C273.74083,22.0604651 273.732314,21.9348837 273.732314,21.9013953 C274.229952,21.0781091 274.657185,20.2156097 275.009607,19.3227907 C275.313857,18.5584474 275.567015,17.775386 275.767467,16.9786047 C275.912227,16.4846512 276.074017,15.7311628 276.261354,14.6762791 L274.830786,14.6762791 C274.745633,14.6762791 274.566812,14.6762791 274.566812,14.3832558 L274.566812,13.9311628 C274.566812,13.6465116 274.745633,13.6130233 274.830786,13.6130233 L279.429039,13.6130233 C279.505677,13.6130233 279.675983,13.6130233 279.675983,13.9311628 L279.675983,14.3832558 C279.675983,14.6511628 279.505677,14.6762791 279.429039,14.6762791 L277.385371,14.6762791 C277.20655,15.7395349 277.002183,16.7106977 276.797817,17.5813953 C276.765527,17.6686987 276.73991,17.7582498 276.721179,17.8493023 L279.275764,17.8493023 C279.565284,17.8493023 279.59083,18.0334884 279.59083,18.1088372 L279.59083,24.0362791 C279.582686,24.1131947 279.542128,24.1832342 279.479012,24.229378 C279.415895,24.2755217 279.335997,24.2935456 279.258734,24.2790698 Z M276.75524,18.8623256 L276.75524,23.215814 L278.356114,23.215814 L278.356114,18.8623256 L276.75524,18.8623256 Z M290.217904,18.3516279 L290.754367,18.3516279 C291.043886,18.3516279 291.077948,18.184186 291.077948,18.1088372 L291.077948,15.6474419 L293.777293,15.6474419 C293.680856,15.9807982 293.549589,16.3034472 293.38559,16.6102326 C293.168124,17.1071211 292.852659,17.5567115 292.457424,17.9330233 C292.170064,18.2239184 291.843432,18.474633 291.486681,18.6781395 C291.286237,18.811019 291.06463,18.9100554 290.831004,18.9711628 C290.720306,18.9711628 290.703275,19.08 290.703275,19.1218605 C290.700677,19.2300203 290.764501,19.3291012 290.865066,19.3730233 C290.988655,19.4777921 291.100035,19.5957233 291.197162,19.7246512 C291.257365,19.8566812 291.390608,19.9418329 291.537773,19.9423256 C291.608705,19.9397207 291.678306,19.9226129 291.74214,19.892093 C292.303911,19.5942286 292.829536,19.234725 293.308952,18.8204651 C293.624347,18.4916121 293.909316,18.1357869 294.16048,17.7572093 C294.443171,17.31565 294.679954,16.847244 294.867249,16.3590698 C294.894274,16.3053416 294.951115,16.2724678 295.012009,16.2753488 L295.054585,16.2753488 C295.183537,16.228084 295.27089,16.1091679 295.275983,15.9739535 C295.275983,15.9069767 295.275983,15.8316279 294.841703,15.664186 L296.485153,15.664186 L296.485153,18.3432558 C296.485153,19.0046512 296.919432,19.3395349 297.779476,19.3395349 L299.618777,19.3395349 C299.942378,19.3798456 300.26425,19.2532616 300.470306,19.0046512 C300.79912,18.5228206 300.998338,17.966902 301.049345,17.3888372 C301.052627,17.3189618 301.023998,17.2512962 300.97128,17.2043235 C300.918561,17.1573508 300.847261,17.1359792 300.776856,17.1460465 C300.491941,17.1330858 300.214424,17.0526667 299.967904,16.9116279 L299.925328,16.9116279 C299.857205,16.9116279 299.763537,16.9116279 299.746507,17.1293023 C299.695415,17.8409302 299.593231,18.0334884 299.525109,18.1004651 C299.409093,18.2271214 299.237224,18.289706 299.065284,18.267907 L298.256332,18.267907 C297.719869,18.267907 297.651747,17.9916279 297.651747,17.7906977 L297.651747,15.6474419 L301.338865,15.6474419 L301.338865,18.1088372 C301.338865,18.184186 301.338865,18.3516279 301.65393,18.3516279 L302.232969,18.3516279 C302.505459,18.3516279 302.53952,18.184186 302.53952,18.1088372 L302.53952,14.8269767 C302.53952,14.7516279 302.53952,14.5674419 302.232969,14.5674419 L296.715066,14.5674419 L296.715066,14.0902326 C296.715066,14.0148837 296.715066,13.8893023 296.800218,13.8809302 C296.885371,13.8725581 296.99607,13.8055814 296.99607,13.5795349 C296.99607,13.3534884 296.800218,13.3283721 295.820961,13.3283721 C295.531441,13.3283721 295.49738,13.504186 295.49738,13.5795349 L295.49738,14.5674419 L290.192358,14.5674419 C290.106376,14.5618478 290.022327,14.5942007 289.963064,14.6557045 C289.9038,14.7172083 289.875482,14.8014703 289.885808,14.8855814 L289.885808,18.1088372 C289.902838,18.184186 289.902838,18.3516279 290.217904,18.3516279 Z M290.422271,26.4139535 C290.498908,26.547907 290.584061,26.6148837 290.686245,26.6148837 C291.460419,26.2963709 292.199419,25.9008233 292.891703,25.4344186 C293.272241,25.1467884 293.610393,24.8086876 293.896507,24.4297674 C294.1966,24.0512492 294.448266,23.6379216 294.645852,23.1990698 C294.80618,22.7921804 294.928732,22.371862 295.012009,21.9432558 L298.503275,21.9432558 L298.034934,24.9069767 C298.01223,25.2528361 298.111472,25.5958196 298.315939,25.8781395 C298.622527,26.1480756 299.03048,26.2787349 299.439956,26.2381395 L301.05786,26.2381395 C301.384885,26.248937 301.704069,26.138354 301.951965,25.9283721 C302.326336,25.4654068 302.614606,24.9410757 302.803493,24.3795349 C302.803493,24.304186 302.752402,24.2204651 302.624672,24.12 C302.496943,24.0195349 302.25,23.852093 302.122271,23.7432558 C302.072497,23.6737535 301.995186,23.6281473 301.909389,23.6176744 C301.780964,23.6175939 301.675547,23.7175359 301.670961,23.8437209 C301.569608,24.2422941 301.390288,24.6176507 301.143013,24.9488372 C300.922185,25.0593469 300.674885,25.1085541 300.427729,25.0911628 L299.678384,25.0911628 C299.535444,25.1074018 299.392408,25.061544 299.286681,24.9655814 C299.228371,24.9115212 299.197224,24.8349637 299.201528,24.7562791 L299.720961,21.2316279 C299.720961,20.9972093 299.601747,20.8716279 299.39738,20.8716279 L295.139738,20.8716279 C295.139738,20.5702326 295.182314,20.2186047 295.19083,19.8251163 C295.19083,19.8251163 295.19083,19.7162791 295.361135,19.6325581 C295.472709,19.5898339 295.544492,19.4822906 295.539956,19.3646512 L295.539956,19.264186 L293.981659,19.1469767 L293.981659,19.2390698 C294.019425,19.7742405 294.019425,20.3113409 293.981659,20.8465116 L291.060917,20.8465116 C290.988689,20.8383906 290.916639,20.8631119 290.865233,20.9136533 C290.813827,20.9641946 290.788683,21.0350331 290.796943,21.1060465 L290.796943,21.6669767 C290.796943,21.9432558 290.984279,21.9683721 291.060917,21.9683721 L293.777293,21.9683721 C293.759818,22.0624479 293.734179,22.1548788 293.700655,22.2446512 C293.571611,22.6019295 293.409124,22.9466633 293.215284,23.2744186 C293.000492,23.6097097 292.746104,23.9188354 292.457424,24.1953488 C292.202923,24.4476767 291.916779,24.6671159 291.605895,24.8483721 C291.291834,25.0385327 290.96129,25.2010256 290.618122,25.3339535 C290.268996,25.4762791 289.987991,25.5851163 289.766594,25.652093 L289.706987,25.652093 L289.706987,25.7106977 C289.715161,25.8136138 289.767878,25.9081281 289.851747,25.9702326 C290.052905,26.1039507 290.243612,26.2522713 290.422271,26.4139535 Z M313.038865,23.9525581 C313.182359,23.4881211 313.282124,23.0116978 313.3369,22.5293023 C313.3369,22.1106977 313.387991,21.6167442 313.396507,21.0725581 L314.54607,21.0725581 L314.54607,25.4427907 C314.54607,25.9451163 314.827074,26.2046512 315.397598,26.2046512 L317.466812,26.2046512 C317.969214,26.2046512 318.369432,25.5767442 318.701528,24.2790698 L318.701528,24.2204651 L317.620087,23.5506977 L317.620087,23.6762791 C317.381659,25.0660465 317.194323,25.0827907 317.185808,25.0827907 L315.806332,25.0827907 C315.806332,25.0827907 315.806332,25.0827907 315.806332,24.932093 L315.806332,21.1060465 L317.901092,21.1060465 C317.977729,21.1060465 318.165066,21.1060465 318.165066,20.787907 L318.165066,20.344186 C318.165066,20.0595349 317.977729,20.0260465 317.901092,20.0260465 L310.603493,20.0260465 C310.526856,20.0260465 310.35655,20.0260465 310.35655,20.344186 L310.35655,20.787907 C310.35655,21.0725581 310.526856,21.1060465 310.603493,21.1060465 L312.238428,21.1060465 C312.238428,21.7172093 312.238428,22.2027907 312.178821,22.5460465 C312.128228,22.9268048 312.042727,23.3022865 311.923362,23.667907 C311.829502,23.9307274 311.697576,24.1788635 311.531659,24.4046512 C311.371953,24.6610634 311.149461,24.8740574 310.884498,25.024186 C310.442376,25.238009 309.976631,25.4009475 309.496507,25.5097674 L309.428384,25.5097674 L309.428384,25.5767442 C309.431034,25.6464831 309.448434,25.7149142 309.479476,25.7776744 C309.603995,25.9941349 309.740443,26.2037493 309.88821,26.4055814 C309.904979,26.5325759 310.013455,26.6285627 310.143668,26.6316279 C310.577948,26.464186 310.995197,26.2967442 311.335808,26.1209302 C311.75061,25.8747248 312.116935,25.5570995 312.417249,25.1832558 C312.69392,24.8106381 312.904122,24.3944723 313.038865,23.9525581 Z M311.863755,17.3469767 C311.787118,17.3469767 311.608297,17.3469767 311.608297,17.6483721 L311.608297,18.1088372 C311.608297,18.3851163 311.787118,18.4102326 311.863755,18.4102326 L316.172489,18.4102326 C316.257642,18.4102326 316.436463,18.4102326 316.436463,18.1088372 L316.436463,17.6483721 C316.436463,17.372093 316.257642,17.3469767 316.172489,17.3469767 L311.863755,17.3469767 Z M310.160699,17.907907 L310.739738,17.907907 C311.029258,17.907907 311.063319,17.7237209 311.063319,17.6483721 L311.063319,15.8065116 L317.024017,15.8065116 L317.024017,17.6483721 C317.024017,17.7237209 317.024017,17.907907 317.330568,17.907907 L317.909607,17.907907 C318.199127,17.907907 318.224672,17.7237209 318.224672,17.6483721 L318.224672,15.0027907 C318.224672,14.9190698 318.224672,14.7432558 317.909607,14.7432558 L314.503493,14.7432558 L314.503493,13.9730233 C314.503493,13.8976744 314.503493,13.772093 314.580131,13.7637209 C314.656769,13.7553488 314.793013,13.6883721 314.793013,13.4706977 C314.793013,13.2530233 314.597162,13.2111628 313.609389,13.2111628 C313.328384,13.2111628 313.294323,13.3869767 313.294323,13.4706977 L313.294323,14.7432558 L310.160699,14.7432558 C310.073297,14.7349912 309.986803,14.7661704 309.925549,14.8280221 C309.864295,14.8898739 309.8349,14.9757144 309.845633,15.0613953 L309.845633,17.6483721 C309.828603,17.7572093 309.854148,17.907907 310.143668,17.907907 L310.160699,17.907907 Z M305.656114,26.4976744 L306.235153,26.4976744 C306.524672,26.4976744 306.558734,26.3134884 306.558734,26.2381395 L306.558734,14.7348837 L308.338428,14.7348837 L307.001528,18.0837209 C306.976031,18.162337 306.961703,18.2440397 306.958952,18.3265116 C306.963492,18.4063779 307.004092,18.4800719 307.069651,18.5274419 C307.613657,19.072751 308.047134,19.7148732 308.346943,20.4195349 C308.588309,20.914351 308.721734,21.4533342 308.738646,22.0018605 C308.752984,22.4020678 308.709986,22.8022684 308.610917,23.1906977 C308.530564,23.4355149 308.2823,23.5876286 308.023362,23.5506977 L307.21441,23.4502326 C307.069651,23.4502326 307.069651,23.6511628 307.069651,23.7516279 C307.150351,23.9695556 307.213001,24.193541 307.256987,24.4213953 C307.256987,24.7813953 307.827511,24.7813953 308.006332,24.7813953 C308.647346,24.8149459 309.253091,24.4912724 309.573144,23.944186 C309.897024,23.3700652 310.04212,22.7150093 309.990393,22.0604651 C309.983298,21.4305093 309.862195,20.8068258 309.632751,20.2186047 C309.310717,19.5068078 308.88629,18.8442183 308.372489,18.2511628 C308.347846,18.2229451 308.332939,18.1877707 308.329913,18.1506977 C308.325403,18.1089546 308.325403,18.0668593 308.329913,18.0251163 L309.692358,14.4083721 C309.658396,14.1577684 309.527196,13.9297805 309.326201,13.772093 C309.171715,13.6682638 308.983928,13.6235955 308.798253,13.6465116 L305.656114,13.6465116 C305.572612,13.6386372 305.489899,13.6678519 305.430584,13.7261697 C305.371269,13.7844876 305.341554,13.8658098 305.349563,13.947907 L305.349563,26.2381395 C305.349563,26.3134884 305.383624,26.4976744 305.656114,26.4976744 Z M183.581004,36.175814 L187.779039,36.175814 L187.779039,40.2530233 L189.584279,40.2530233 L189.584279,30.9683721 L187.779039,30.9683721 L187.779039,34.6772093 L183.581004,34.6772093 L183.581004,30.9683721 L181.758734,30.9683721 L181.758734,40.227907 L183.563974,40.227907 L183.581004,36.175814 Z M195.059607,33.4130233 C196.009154,33.3525483 196.939989,33.6923572 197.619297,34.3474595 C198.298605,35.0025618 198.662146,35.911007 198.618996,36.8455814 C198.652078,37.8055012 198.271573,38.7345688 197.571142,39.4040922 C196.870711,40.0736156 195.915412,40.4214083 194.940393,40.3618605 C193.987008,40.4139616 193.055158,40.0702158 192.371926,39.4143908 C191.688694,38.7585657 191.316826,37.850891 191.346943,36.9125581 C191.307773,35.9442051 191.690879,35.0054585 192.39996,34.3322855 C193.109042,33.6591126 194.076666,33.3155317 195.059607,33.387907 L195.059607,33.4130233 Z M193.220306,36.9125581 C193.220306,38.2018605 193.893013,39.1813953 195,39.1813953 C196.106987,39.1813953 196.745633,38.2353488 196.745633,36.8874419 C196.745633,35.8409302 196.251747,34.6437209 195.042576,34.6437209 C193.833406,34.6437209 193.220306,35.7739535 193.220306,36.8874419 L193.220306,36.9125581 Z M204.996943,36.4772093 L204.996943,40.2530233 L206.810699,40.2530233 L206.810699,36.2595349 C206.810699,34.1413953 205.516376,33.387907 204.256114,33.387907 C203.342236,33.3540502 202.476805,33.7921891 201.974017,34.5432558 L201.931441,34.5432558 L201.846288,33.5386047 L200.25393,33.5386047 C200.25393,34.1162791 200.313537,34.7609302 200.313537,35.5311628 L200.313537,40.227907 L202.135808,40.227907 L202.135808,36.3013953 C202.129758,36.1142923 202.155663,35.9275164 202.212445,35.7488372 C202.4223,35.1577178 202.989182,34.7615301 203.625983,34.7609302 C204.622271,34.7609302 204.996943,35.4893023 204.996943,36.452093 L204.996943,36.4772093 Z M214.363755,42.3376744 C213.569076,42.9260505 212.58993,43.2222601 211.596288,43.1748837 C210.729701,43.2010939 209.869885,43.0170705 209.092795,42.6390698 L209.493013,41.3581395 C210.135069,41.6946183 210.851688,41.8700414 211.579258,41.8688372 C212.141904,41.9336787 212.703869,41.7423749 213.105272,41.3493524 C213.506675,40.9563299 213.703576,40.4046114 213.639956,39.8511628 L213.639956,39.2734884 C213.143399,39.8966639 212.365654,40.2382565 211.562227,40.1860465 C210.708233,40.1794586 209.895517,39.823874 209.318874,39.2045202 C208.74223,38.5851663 208.453639,37.757874 208.522271,36.9209302 C208.446862,36.0225246 208.752591,35.1334407 209.367018,34.4643379 C209.981445,33.7952351 210.849894,33.4056559 211.766594,33.387907 C212.601968,33.3357032 213.399369,33.7373388 213.844323,34.4344186 L213.920961,33.5386047 L215.496288,33.5386047 C215.496288,33.9906977 215.436681,34.5432558 215.436681,35.464186 L215.436681,39.2567442 C215.565536,40.3700805 215.181354,41.4817486 214.389301,42.2874419 L214.363755,42.3376744 Z M213.605895,36.267907 C213.610981,36.115581 213.593775,35.963327 213.554803,35.815814 C213.375408,35.1640111 212.768347,34.715509 212.081659,34.7274419 C211.068341,34.7274419 210.318996,35.5646512 210.318996,36.9125581 C210.318996,38.0511628 210.932096,38.972093 212.064629,38.972093 C212.726683,38.982711 213.320826,38.5741425 213.537773,37.9590698 C213.581909,37.758212 213.604738,37.5533955 213.605895,37.347907 L213.605895,36.267907 Z M228.303275,31.0186047 L226.072271,31.0186047 L223.517686,34.2753488 C223.279258,34.5934884 223.032314,34.92 222.793886,35.28 L222.75131,35.28 L222.75131,30.9683721 L220.929039,30.9683721 L220.929039,40.227907 L222.725764,40.227907 L222.725764,37.0130233 L223.577293,36.0251163 L226.387336,40.2697674 L228.592795,40.2697674 L224.956769,34.9534884 L228.303275,31.0186047 Z M232.654585,40.3618605 C231.702635,40.4115289 230.77308,40.0667026 230.091759,39.4111591 C229.410439,38.7556156 229.039712,37.8493548 229.069651,36.9125581 C229.008587,35.9382528 229.382948,34.9862476 230.094747,34.3057233 C230.806547,33.6251989 231.784925,33.2839014 232.773799,33.3711628 C233.723347,33.3106878 234.654181,33.6504968 235.333489,34.3055991 C236.012797,34.9607014 236.376339,35.8691466 236.333188,36.8037209 C236.378659,37.7707673 236.003608,38.7111816 235.301701,39.390103 C234.599795,40.0690245 233.637297,40.4223576 232.654585,40.3618605 Z M234.459825,36.8455814 C234.459825,35.7990698 233.965939,34.6018605 232.756769,34.6018605 C231.547598,34.6018605 230.960044,35.7572093 230.960044,36.8706977 C230.960044,38.16 231.632751,39.1395349 232.739738,39.1395349 C233.846725,39.1395349 234.459825,38.2102326 234.459825,36.8623256 L234.459825,36.8455814 Z M242.719651,36.4353488 L242.719651,40.2111628 L244.524891,40.2111628 L244.524891,36.2595349 C244.524891,34.1413953 243.230568,33.387907 241.970306,33.387907 C241.056729,33.3450957 240.189579,33.7857486 239.696725,34.5432558 L239.662664,34.5432558 L239.577511,33.5386047 L237.959607,33.5386047 C238.010699,34.1162791 238.019214,34.7609302 238.019214,35.5311628 L238.019214,40.227907 L239.85,40.227907 L239.85,36.3013953 C239.841194,36.1147625 239.864219,35.9279967 239.918122,35.7488372 C240.134209,35.1476144 240.717259,34.749715 241.365721,34.7609302 C242.336463,34.7609302 242.719651,35.4893023 242.719651,36.452093 L242.719651,36.4353488 Z M252.086463,42.295814 C251.291783,42.88419 250.312637,43.1803996 249.318996,43.1330233 C248.452409,43.1592335 247.592593,42.9752101 246.815502,42.5972093 L247.215721,41.3162791 C247.857776,41.6527578 248.574395,41.8281809 249.301965,41.8269767 C249.864611,41.8918183 250.426576,41.7005145 250.82798,41.3074919 C251.229383,40.9144694 251.426284,40.362751 251.362664,39.8093023 L251.362664,39.2316279 C250.876408,39.8846586 250.090263,40.2554115 249.267904,40.2195349 C248.41391,40.2129469 247.601194,39.8573624 247.02455,39.2380086 C246.447907,38.6186547 246.159316,37.7913623 246.227948,36.9544186 C246.152463,36.0545878 246.459324,35.1641939 247.075612,34.4948219 C247.6919,33.8254498 248.562592,33.4368607 249.480786,33.4213953 C250.318096,33.3526391 251.126106,33.7418096 251.584061,34.4344186 L251.652183,33.5386047 L253.227511,33.5386047 C253.227511,33.9906977 253.167904,34.5432558 253.167904,35.464186 L253.167904,39.2567442 C253.292297,40.3726844 252.901734,41.4847332 252.103493,42.2874419 L252.086463,42.295814 Z M251.337118,36.2260465 C251.339429,36.0733167 251.319354,35.9210558 251.277511,35.7739535 C251.098115,35.1221507 250.491054,34.6736485 249.804367,34.6855814 C248.791048,34.6855814 248.041703,35.5227907 248.041703,36.8706977 C248.041703,38.0093023 248.654803,38.9302326 249.787336,38.9302326 C250.44939,38.9408506 251.043533,38.5322821 251.26048,37.9172093 C251.30742,37.7166364 251.333103,37.5118226 251.337118,37.3060465 L251.337118,36.2260465 Z M263.777948,37.615814 L260.627293,37.615814 L259.775764,40.2362791 L257.910917,40.2362791 L261.087118,30.9767442 L263.39476,30.9767442 L266.613537,40.2362791 L264.672052,40.2362791 L263.777948,37.615814 Z M263.505459,36.3265116 L262.722052,34.0493023 C262.534716,33.48 262.372926,32.852093 262.219651,32.3162791 C262.074891,32.852093 261.921616,33.4967442 261.75131,34.0493023 L260.984934,36.3265116 L263.505459,36.3265116 Z M269.925983,39.5246512 L269.925983,42.9906977 L268.112227,42.9906977 L268.112227,35.7655814 C268.112227,34.8865116 268.112227,34.1665116 268.061135,33.5386047 L269.644978,33.5386047 L269.738646,34.5683721 C270.296911,33.7883399 271.222018,33.3430391 272.191048,33.387907 C273.843013,33.387907 275.213974,34.7023256 275.213974,36.7953488 C275.213974,39.2148837 273.579039,40.3786047 271.944105,40.3786047 C271.171115,40.4281642 270.420759,40.1106566 269.925983,39.5246512 Z M269.925983,37.9339535 C270.119554,38.6357169 270.770305,39.120733 271.509825,39.1144186 C272.659389,39.1144186 273.340611,38.2186047 273.340611,36.904186 C273.340611,35.7237209 272.718996,34.7609302 271.560917,34.7609302 C270.798359,34.7736619 270.137384,35.2832892 269.943013,36.0083721 C269.893604,36.1455454 269.867705,36.2898335 269.866376,36.4353488 L269.866376,37.4651163 C269.878502,37.6108525 269.909993,37.7543991 269.960044,37.892093 L269.925983,37.9339535 Z M284.001747,36.8372093 C284.001747,39.2567442 282.366812,40.4204651 280.740393,40.4204651 C279.970946,40.4531961 279.232512,40.1197892 278.756332,39.5246512 L278.756332,42.9906977 L276.951092,42.9906977 L276.951092,35.7655814 C276.951092,34.8865116 276.951092,34.1665116 276.891485,33.5386047 L278.483843,33.5386047 L278.568996,34.5683721 C279.13105,33.788223 280.058586,33.3432978 281.029913,33.387907 C282.664847,33.387907 284.035808,34.7023256 284.035808,36.7953488 L284.001747,36.8372093 Z M282.162445,36.904186 C282.162445,35.7237209 281.549345,34.7609302 280.382751,34.7609302 C279.620193,34.7736619 278.959218,35.2832892 278.764847,36.0083721 C278.719496,36.1465661 278.693708,36.2902401 278.68821,36.4353488 L278.68821,37.4651163 C278.68544,37.6233798 278.705508,37.78123 278.747817,37.9339535 C278.942181,38.6387627 279.597501,39.124572 280.340175,39.1144186 C281.523799,39.0725581 282.239083,38.1767442 282.239083,36.8623256 L282.162445,36.904186 Z M285.704803,40.2530233 L287.53559,40.2530233 L287.53559,30.4744186 L285.704803,30.4744186 L285.704803,40.2530233 Z M290.618122,30.775814 C290.357336,30.7572811 290.100391,30.8457862 289.908388,31.0202835 C289.716385,31.1947808 289.606479,31.4396793 289.604803,31.6967442 C289.652975,32.2139352 290.094142,32.6097792 290.62238,32.6097792 C291.150618,32.6097792 291.591785,32.2139352 291.639956,31.6967442 C291.64493,31.4399571 291.541592,31.192596 291.354474,31.0133817 C291.167355,30.8341675 290.913142,30.739082 290.652183,30.7506977 L290.618122,30.775814 Z M289.706987,40.2530233 L291.605895,40.2530233 L291.605895,33.5553488 L289.783624,33.5553488 L289.706987,40.2530233 Z M299.831659,36.6697674 C299.831681,36.9081828 299.811745,37.1461956 299.772052,37.3813953 L295.012009,37.3813953 C295.054585,38.5869767 296.067904,39.1144186 297.217467,39.1144186 C297.891824,39.131301 298.5638,39.0292223 299.201528,38.8130233 L299.465502,39.9767442 C298.664239,40.2671333 297.815935,40.4118134 296.962009,40.4037209 C294.637336,40.4037209 293.274891,39.055814 293.274891,37.0548837 C293.201995,36.1078202 293.541548,35.1748683 294.209022,34.4882809 C294.876496,33.8016936 295.809102,33.426057 296.774672,33.4548837 C299.116376,33.387907 299.865721,35.1711628 299.865721,36.6446512 L299.831659,36.6697674 Z M298.128603,36.2009302 C298.193561,35.7785003 298.066635,35.3493284 297.78142,35.0270073 C297.496204,34.7046861 297.081453,34.521711 296.646943,34.5265116 C295.742883,34.5620045 295.02486,35.2863379 295.012009,36.175814 L298.128603,36.2009302 Z M304.268122,33.4130233 C305.037884,33.3463584 305.791023,33.6601187 306.277729,34.2502326 L306.277729,30.4744186 L308.082969,30.4744186 L308.082969,38.344186 C308.082969,39.0306977 308.082969,39.775814 308.142576,40.227907 L306.524672,40.227907 L306.448035,39.1730233 C305.948757,39.9447635 305.06996,40.3974972 304.140393,40.3618605 C302.437336,40.3618605 301.083406,39.0055814 301.083406,36.9376744 C301.066376,34.7190698 302.573581,33.387907 304.293668,33.387907 L304.268122,33.4130233 Z M302.897162,36.9293023 C302.897162,38.1516279 303.544323,39.0474419 304.693886,39.0474419 C305.443534,39.0673515 306.104634,38.5676331 306.277729,37.8502326 C306.320019,37.688951 306.340068,37.5228123 306.337336,37.3562791 L306.337336,36.3516279 C306.335434,36.2028291 306.321194,36.0544304 306.29476,35.907907 C306.122461,35.1982724 305.469821,34.7030741 304.727948,34.7190698 C303.569869,34.6939535 302.922707,35.6567442 302.922707,36.904186 L302.897162,36.9293023 Z M317.066594,34.8697674 C315.73821,34.384186 315.167686,34.0325581 315.167686,33.3460465 C315.167686,32.8102326 315.661572,32.2325581 316.811135,32.2325581 C317.49488,32.2269344 318.170792,32.3758844 318.786681,32.667907 L319.220961,31.3116279 C318.475772,30.9792489 317.663122,30.8188792 316.845197,30.8427907 C314.69083,30.8427907 313.3369,31.9981395 313.3369,33.5051163 C313.3369,34.8362791 314.384279,35.6483721 316.019214,36.2009302 C317.279476,36.627907 317.781878,37.0381395 317.781878,37.7413953 C317.781878,38.4446512 317.134716,39.0055814 315.976638,39.0055814 C315.139166,39.0006668 314.315321,38.7967327 313.575328,38.4111628 L313.175109,39.8176744 C314.012987,40.2089293 314.929862,40.4092531 315.857424,40.4037209 C318.412009,40.4037209 319.621179,39.0976744 319.621179,37.615814 C319.646725,36.2595349 318.854803,35.4474419 317.09214,34.8446512 L317.066594,34.8697674 Z M325.079476,34.7274419 C325.550643,34.7198506 326.018034,34.8111862 326.450437,34.9953488 L326.774017,33.7311628 C326.215726,33.5145938 325.620008,33.4065519 325.019869,33.4130233 C322.50786,33.4130233 321.034716,34.9786047 321.034716,36.9795349 C321.034716,38.9804651 322.516376,40.3618605 324.755895,40.3618605 C325.448767,40.3718837 326.137033,40.2496241 326.782533,40.0018605 L326.518559,38.7711628 C326.062991,38.9468911 325.577347,39.0349972 325.087991,39.0306977 C323.925387,38.9595687 323.019507,38.0117766 323.019507,36.8665116 C323.019507,35.7212466 323.925387,34.7734545 325.087991,34.7023256 L325.079476,34.7274419 Z M329.209389,32.6009302 C329.710728,32.5691065 330.095316,32.1508778 330.077147,31.6572653 C330.058978,31.1636527 329.644649,30.7738497 329.142281,30.7777383 C328.639913,30.7816268 328.231878,31.1777953 328.221616,31.6716279 C328.222905,31.9274249 328.333333,32.1709461 328.525993,32.3428574 C328.718654,32.5147687 328.975857,32.599285 329.234934,32.575814 L329.209389,32.6009302 Z M330.137555,33.5637209 L328.315284,33.5637209 L328.315284,40.2613953 L330.137555,40.2613953 L330.137555,33.5637209 Z M338.039738,39.9767442 C337.238474,40.2671333 336.390171,40.4118134 335.536245,40.4037209 C333.211572,40.4037209 331.840611,39.055814 331.840611,37.0548837 C331.767523,36.106321 332.108198,35.1719585 332.777581,34.4850786 C333.446964,33.7981987 334.38188,33.4236273 335.348908,33.4548837 C337.682096,33.4548837 338.431441,35.2381395 338.431441,36.7116279 C338.435777,36.9501986 338.415809,37.1885968 338.371834,37.4232558 L333.577729,37.4232558 C333.628821,38.6288372 334.64214,39.1562791 335.783188,39.1562791 C336.460369,39.173803 337.135255,39.0717204 337.775764,38.8548837 L338.039738,39.9767442 Z M333.603275,36.175814 L336.7369,36.175814 C336.801858,35.753384 336.674932,35.3242121 336.389717,35.001891 C336.104501,34.6795698 335.68975,34.4965948 335.25524,34.5013953 C334.334679,34.5285599 333.602861,35.2703252 333.603275,36.175814 Z M344.809389,36.452093 L344.809389,40.227907 L346.623144,40.227907 L346.623144,36.2595349 C346.623144,34.1413953 345.328821,33.387907 344.068559,33.387907 C343.154682,33.3540502 342.28925,33.7921891 341.786463,34.5432558 L341.743886,34.5432558 L341.658734,33.5386047 L340.066376,33.5386047 C340.108952,34.1162791 340.125983,34.7609302 340.125983,35.5311628 L340.125983,40.227907 L341.948253,40.227907 L341.948253,36.3013953 C341.942204,36.1142923 341.968109,35.9275164 342.024891,35.7488372 C342.234746,35.1577178 342.801627,34.7615301 343.438428,34.7609302 C344.400655,34.7609302 344.809389,35.4893023 344.809389,36.452093 Z M353.767467,38.7711628 C353.315154,38.9478679 352.832097,39.0360294 352.345415,39.0306977 C351.182811,38.9595687 350.276931,38.0117766 350.276931,36.8665116 C350.276931,35.7212466 351.182811,34.7734545 352.345415,34.7023256 C352.813961,34.6933117 353.278882,34.7847324 353.70786,34.9702326 L354.031441,33.7060465 C353.476414,33.4884737 352.883275,33.3803749 352.285808,33.387907 C349.731223,33.387907 348.300655,34.9534884 348.300655,36.9544186 C348.300655,38.9553488 349.773799,40.3618605 352.004803,40.3618605 C352.700496,40.3725443 353.391678,40.2502806 354.039956,40.0018605 L353.767467,38.7711628 Z M355.010699,37.0130233 C354.937802,36.0659598 355.277356,35.1330078 355.94483,34.4464205 C356.612304,33.7598331 357.54491,33.3841965 358.51048,33.4130233 C360.852183,33.4130233 361.601528,35.1962791 361.601528,36.6697674 C361.60155,36.9081828 361.581614,37.1461956 361.541921,37.3813953 L356.747817,37.3813953 C356.790393,38.5869767 357.803712,39.1144186 358.953275,39.1144186 C359.627632,39.131301 360.299608,39.0292223 360.937336,38.8130233 L361.20131,39.9767442 C360.400046,40.2671333 359.551743,40.4118134 358.697817,40.4037209 C356.381659,40.3618605 355.010699,39.0306977 355.010699,37.0130233 Z M356.713755,36.175814 L359.855895,36.175814 C359.920854,35.753384 359.793928,35.3242121 359.508712,35.001891 C359.223497,34.6795698 358.808746,34.4965948 358.374236,34.5013953 C357.46372,34.5417199 356.746893,35.279702 356.747817,36.175814 L356.713755,36.175814 Z M372.168996,40.227907 L370.534061,40.227907 L370.457424,39.5246512 L370.406332,39.5246512 C369.864476,40.0991947 369.090196,40.4061544 368.294541,40.3618605 C367.722008,40.4106116 367.154508,40.2240428 366.726953,39.8465075 C366.299398,39.4689721 366.049979,38.9341923 366.037991,38.3693023 C366.037991,36.6948837 367.64738,35.8576744 370.295633,35.8576744 L370.295633,35.7488372 C370.295633,35.3051163 370.099782,34.5851163 368.83952,34.5851163 C368.162609,34.5827889 367.496639,34.7529719 366.90655,35.0790698 L366.540393,33.9739535 C367.329721,33.5744293 368.207319,33.3730999 369.094978,33.387907 C371.38559,33.387907 372.049782,34.744186 372.049782,36.2009302 L372.049782,38.6204651 C372.060326,39.159271 372.111559,39.6965628 372.203057,40.227907 L372.168996,40.227907 Z M370.304155,36.9544186 C369.018341,36.9544186 367.800655,37.1888372 367.800655,38.2102326 C367.783837,38.4793191 367.888896,38.7419465 368.087654,38.9276718 C368.286411,39.113397 368.558524,39.2032109 368.831004,39.1730233 C369.453397,39.1927032 370.020397,38.8232984 370.244541,38.252093 C370.28447,38.1303824 370.304587,38.0032332 370.304148,37.8753488 L370.304155,36.9544186 Z M378.13821,33.387907 C377.239568,33.3601919 376.392268,33.7989748 375.907205,34.5432558 L375.856114,34.5432558 L375.770961,33.5386047 L374.204148,33.5386047 C374.204148,34.1162791 374.25524,34.7609302 374.25524,35.5311628 L374.25524,40.227907 L376.086026,40.227907 L376.086026,36.3013953 C376.07722,36.1147625 376.100245,35.9279967 376.154148,35.7488372 C376.366138,35.1592981 376.931701,34.7640319 377.567686,34.7609302 C378.555459,34.7609302 378.938646,35.4893023 378.938646,36.4353488 L378.938646,40.2111628 L380.743886,40.2111628 L380.743886,36.2595349 C380.718341,34.1413953 379.424017,33.387907 378.172271,33.387907 L378.13821,33.387907 Z M389.531659,40.227907 L387.913755,40.227907 L387.828603,39.1730233 C387.320128,39.960873 386.41731,40.4159068 385.469869,40.3618605 C383.766812,40.3618605 382.412882,39.0055814 382.412882,36.9376744 C382.412882,34.7023256 383.894541,33.3711628 385.614629,33.3711628 C386.387048,33.303135 387.143365,33.6168899 387.632751,34.2083721 L387.632751,30.4744186 L389.437991,30.4744186 L389.437991,38.344186 C389.472052,39.0306977 389.531659,39.775814 389.531659,40.227907 Z M387.666812,36.3265116 C387.666189,36.1772212 387.649058,36.0284399 387.615721,35.8827907 C387.44698,35.1744498 386.797214,34.6787384 386.057424,34.6939535 C384.899345,34.6939535 384.252183,35.6567442 384.252183,36.904186 C384.252183,38.1516279 384.899345,39.0223256 386.048908,39.0223256 C386.781568,39.0330646 387.426071,38.5482929 387.607205,37.8502326 C387.649495,37.688951 387.669544,37.5228123 387.666812,37.3562791 L387.666812,36.3265116 Z M189.260699,46.4734884 L181.758734,46.4734884 L181.758734,47.8967442 L184.577293,47.8967442 L184.577293,55.7413953 L186.391048,55.7413953 L186.391048,47.8967442 L189.243668,47.8967442 L189.260699,46.4734884 Z M195.570524,52.1497674 C195.575326,52.3883526 195.555353,52.6267969 195.510917,52.8613953 L190.716812,52.8613953 C190.759389,54.0753488 191.781223,54.5944186 192.922271,54.5944186 C193.599452,54.6119425 194.274338,54.5098599 194.914847,54.2930233 L195.178821,55.4651163 C194.375844,55.7482744 193.528367,55.8899796 192.675328,55.8837209 C190.350655,55.8837209 188.979694,54.544186 188.979694,52.4930233 C188.906798,51.5459598 189.246352,50.6130078 189.913826,49.9264205 C190.5813,49.2398331 191.513905,48.8641965 192.479476,48.8930233 C194.821179,48.8930233 195.570524,50.6762791 195.570524,52.1497674 Z M193.867467,51.6809302 C193.932687,51.2570349 193.804678,50.8264157 193.517537,50.5037726 C193.230396,50.1811296 192.81328,49.9992252 192.377293,50.0065116 C191.43672,50.0065116 190.674236,50.7561744 190.674236,51.6809302 L193.867467,51.6809302 Z M200.841485,50.215814 C201.309334,50.2049601 201.774058,50.2934862 202.20393,50.4753488 L202.527511,49.2111628 C201.972239,48.9944259 201.379269,48.886358 200.781878,48.8930233 C198.227293,48.8930233 196.796725,50.4586047 196.796725,52.467907 C196.796725,54.4772093 198.252838,55.8837209 200.483843,55.8837209 C201.175823,55.8923025 201.863286,55.7730255 202.51048,55.532093 L202.263537,54.2762791 C201.813196,54.4604309 201.329165,54.5516197 200.841485,54.544186 C199.678881,54.4730571 198.773001,53.525265 198.773001,52.38 C198.773001,51.234735 199.678881,50.2869429 200.841485,50.215814 Z M208.062445,48.8930233 C207.631608,48.8895091 207.206865,48.9931892 206.827729,49.1944186 C206.465014,49.3713446 206.154309,49.6364785 205.925109,49.9646512 L205.925109,45.9795349 L204.102838,45.9795349 L204.102838,55.7330233 L205.925109,55.7330233 L205.925109,51.7395349 C205.916735,51.5660271 205.942764,51.3925742 206.001747,51.2288372 C206.213166,50.6520034 206.774727,50.2715806 207.398253,50.2827907 C208.394541,50.2827907 208.777729,51.0111628 208.777729,51.9572093 L208.777729,55.707907 L210.582969,55.707907 L210.582969,51.7897674 C210.557424,49.6465116 209.280131,48.8930233 208.062445,48.8930233 Z M216.654367,48.8930233 C215.740866,48.8608251 214.876213,49.2985698 214.372271,50.0483721 L214.329694,50.0483721 L214.236026,49.0437209 L212.652183,49.0437209 C212.69476,49.6213953 212.71179,50.2660465 212.71179,51.0362791 L212.71179,55.7330233 L214.534061,55.7330233 L214.534061,51.8065116 C214.528012,51.6194086 214.553917,51.4326326 214.610699,51.2539535 C214.821626,50.6672821 215.382868,50.2726583 216.015721,50.2660465 C217.003493,50.2660465 217.386681,50.9944186 217.386681,51.9404651 L217.386681,55.7162791 L219.225983,55.7162791 L219.225983,51.7646512 C219.225983,49.6465116 217.906114,48.8930233 216.671397,48.8930233 L216.654367,48.8930233 Z M228.15,52.3255814 C228.197987,53.291829 227.824941,54.2324033 227.124327,54.9116461 C226.423714,55.5908889 225.461917,55.944441 224.479913,55.8837209 C223.533725,55.9237396 222.613309,55.5746329 221.939608,54.9202024 C221.265906,54.2657719 220.899752,53.3651107 220.929039,52.4344186 C220.867976,51.4601132 221.242337,50.5081081 221.954136,49.8275838 C222.665935,49.1470594 223.644314,48.8057618 224.633188,48.8930233 C225.575572,48.8448843 226.494828,49.1901645 227.16452,49.843813 C227.834213,50.4974614 228.192091,51.3987182 228.15,52.3255814 Z M226.285153,52.3255814 C226.285153,51.2874419 225.782751,50.0902326 224.582096,50.0902326 C223.381441,50.0902326 222.785371,51.2455814 222.785371,52.3590698 C222.785371,53.6483721 223.466594,54.6195349 224.565066,54.6195349 C225.663537,54.6195349 226.285153,53.7572093 226.285153,52.3674419 L226.285153,52.3255814 Z M229.861572,55.6744186 L231.683843,55.6744186 L231.683843,45.9795349 L229.861572,45.9795349 L229.861572,55.6744186 Z M240.667467,52.2669767 C240.715688,53.2347756 240.341512,54.1768049 239.638967,54.8563436 C238.936423,55.5358823 237.972297,55.8883284 236.988865,55.8251163 C236.036915,55.8747847 235.107359,55.5299584 234.426039,54.8744149 C233.744718,54.2188714 233.373992,53.3126107 233.40393,52.375814 C233.360808,51.4114288 233.743051,50.475655 234.452631,49.808479 C235.162211,49.1413031 236.130101,48.8076265 237.108079,48.8930233 C238.057626,48.8325483 238.988461,49.1723572 239.667768,49.8274595 C240.347076,50.4825618 240.710618,51.391007 240.667467,52.3255814 L240.667467,52.2669767 Z M238.80262,52.2669767 C238.80262,51.2288372 238.300218,50.0316279 237.099563,50.0316279 C235.898908,50.0316279 235.302838,51.1869767 235.302838,52.3004651 C235.302838,53.5897674 235.984061,54.5609302 237.082533,54.5609302 C238.181004,54.5609302 238.811135,53.7572093 238.811135,52.3674419 L238.80262,52.2669767 Z M247.317904,48.9181395 L248.884716,48.9181395 C248.884716,49.3702326 248.825109,49.9227907 248.825109,50.8437209 L248.825109,54.7618605 C248.950697,55.8788995 248.563653,56.9928857 247.769214,57.8009302 C246.972572,58.3855173 245.994844,58.6812979 245.001747,58.6381395 C244.137792,58.6653976 243.280476,58.4812829 242.506769,58.1023256 L242.898472,56.8297674 C243.546477,57.1577723 244.264393,57.3299293 244.993231,57.332093 C245.555277,57.3974925 246.116809,57.2060421 246.517008,56.8125722 C246.917208,56.4191022 247.111933,55.8670126 247.045415,55.3144186 L247.045415,54.7367442 C246.562876,55.3896213 245.779202,55.7607177 244.95917,55.7246512 C244.104526,55.7178856 243.291099,55.3625591 242.713138,54.7435237 C242.135176,54.1244883 241.844564,53.2973157 241.910699,52.4595349 C241.837773,51.5602895 242.14552,50.6713142 242.76127,50.0025255 C243.377021,49.3337368 244.24619,48.9444222 245.163537,48.9265116 C245.998911,48.8743079 246.796312,49.2759434 247.241266,49.9730233 L247.317904,48.9181395 Z M247.019869,51.5972093 C247.02218,51.4444795 247.002105,51.2922186 246.960262,51.1451163 C246.783554,50.4915278 246.174802,50.041776 245.487118,50.0567442 C244.473799,50.0567442 243.724454,50.8939535 243.724454,52.2418605 C243.724454,53.3888372 244.34607,54.3013953 245.478603,54.3013953 C246.137541,54.30838 246.727272,53.9004877 246.943231,53.2883721 C246.994887,53.0914901 247.020643,52.8889068 247.019869,52.6855814 L247.019869,51.5972093 Z M254.24083,52.4930233 C254.1131,52.9283721 253.976856,53.4223256 253.857642,53.8074419 C253.755459,53.4223256 253.610699,52.92 253.465939,52.5013953 L252.1631,48.9181395 L250.179039,48.9181395 L252.801747,55.0632558 C252.862586,55.1621813 252.897682,55.2743271 252.90393,55.3897674 C252.891638,55.4987428 252.850537,55.6026542 252.784716,55.6911628 C252.547676,56.1188458 252.208745,56.483677 251.796943,56.7544186 C251.476282,56.9695758 251.118496,57.1256029 250.741048,57.2148837 L251.149782,58.6465116 C251.849946,58.5475853 252.507841,58.257526 253.04869,57.8093023 C253.900218,57.1227907 254.56441,56.0093023 255.552183,53.5060465 L257.348908,48.9432558 L255.407424,48.9432558 L254.24083,52.4930233 Z M268.146288,53.0288372 C268.33677,53.9066816 268.595835,54.7687733 268.921179,55.6074419 L267.056332,55.6074419 C266.768383,54.9002469 266.54608,54.1688957 266.39214,53.4223256 C266.111135,52.2167442 265.642795,51.8316279 264.612445,51.8065116 L263.70131,51.8065116 L263.70131,55.6074419 L261.904585,55.6074419 L261.904585,46.5990698 C262.812356,46.4673853 263.728915,46.4030177 264.646507,46.4065116 C265.722079,46.3052881 266.800566,46.5681608 267.703493,47.1516279 C268.265741,47.6037149 268.580756,48.2881924 268.555022,49.0018605 C268.52395,50.0756054 267.8018,51.0110636 266.758297,51.3293023 C267.516802,51.6607627 268.052337,52.3480881 268.180349,53.1544186 L268.146288,53.0288372 Z M266.758297,49.0437209 C266.758297,48.0223256 265.991921,47.5618605 264.816812,47.5618605 C264.443033,47.551711 264.069192,47.5797686 263.70131,47.6455814 L263.70131,50.5674419 L264.774236,50.5674419 C266.060044,50.6930233 266.792358,50.0902326 266.792358,49.1693023 L266.758297,49.0437209 Z M276.601965,52.024186 C276.606767,52.2627712 276.586794,52.5012155 276.542358,52.735814 L271.748253,52.735814 C271.748253,53.9497674 272.804148,54.4688372 273.953712,54.4688372 C274.628116,54.4864486 275.300223,54.3843499 275.937773,54.1674419 L276.278384,55.4316279 C275.4786,55.7156979 274.633748,55.8574462 273.783406,55.8502326 C271.458734,55.8502326 270.087773,54.5106977 270.087773,52.4595349 C270.014877,51.5124714 270.35443,50.5795194 271.021904,49.8929321 C271.689378,49.2063448 272.621984,48.8307082 273.587555,48.8595349 C275.886681,48.8930233 276.636026,50.6762791 276.636026,52.1497674 L276.601965,52.024186 Z M274.898908,51.5553488 C274.961081,51.1320042 274.831983,50.7030869 274.5455,50.3811835 C274.259017,50.0592801 273.843761,49.8765398 273.408734,49.8809302 C272.484829,49.9036465 271.747964,50.6466969 271.748253,51.5553488 L274.898908,51.5553488 Z M281.012882,51.6139535 C280.101747,51.3125581 279.761135,51.1032558 279.761135,50.6762791 C279.761135,50.2493023 280.118777,49.9730233 280.765939,49.9730233 C281.294484,49.9857574 281.813017,50.1175071 282.281659,50.3581395 L282.630786,49.1693023 C282.037177,48.8949926 281.387707,48.757547 280.731878,48.7674419 C279.071397,48.7674419 278.024017,49.6883721 278.024017,50.8688372 C278.024017,51.655814 278.603057,52.3674419 279.999563,52.8195349 C280.851092,53.1125581 281.174672,53.3469767 281.174672,53.7990698 C281.174672,54.2511628 280.825546,54.535814 280.025109,54.535814 C279.38299,54.5169145 278.753803,54.3536712 278.185808,54.0586047 L277.870742,55.4316279 C278.549144,55.7569034 279.295973,55.9203932 280.050655,55.9088372 C281.949563,55.9088372 282.962882,55.0213953 282.962882,53.8074419 C282.945852,52.7944186 282.341266,52.1748837 281.046943,51.7395349 L281.012882,51.6139535 Z M290.771397,52.024186 C290.771812,52.2626171 290.751873,52.5006619 290.71179,52.735814 L285.90917,52.735814 C285.960262,53.9497674 286.973581,54.4688372 288.114629,54.4688372 C288.79181,54.4863611 289.466696,54.3842785 290.107205,54.1674419 L290.371179,55.3395349 C289.568202,55.622693 288.720725,55.7643982 287.867686,55.7581395 C285.543013,55.7581395 284.180568,54.4186047 284.180568,52.3674419 C284.107671,51.4203784 284.447225,50.4874264 285.114699,49.8008391 C285.782173,49.1142517 286.714779,48.7386151 287.680349,48.7674419 C290.047598,48.8930233 290.805459,50.6762791 290.805459,52.1497674 L290.771397,52.024186 Z M289.068341,51.5553488 C289.133299,51.1329189 289.006373,50.703747 288.721158,50.3814259 C288.435942,50.0591047 288.021191,49.8761296 287.586681,49.8809302 C286.646109,49.8809302 285.883624,50.630593 285.883624,51.5553488 L289.068341,51.5553488 Z M298.009389,54 C298.002773,54.5375661 298.036929,55.074869 298.111572,55.6074419 L296.485153,55.6074419 L296.365939,54.8706977 L296.323362,54.8706977 C295.78416,55.4592855 295.008311,55.7840124 294.203057,55.7581395 C293.631927,55.8044492 293.066703,55.6167779 292.641065,55.2395114 C292.215427,54.8622448 291.967175,54.328887 291.955022,53.7655814 C291.955022,52.0911628 293.555895,51.2539535 296.212664,51.2539535 L296.212664,51.2455814 C296.212664,50.8102326 296.016812,50.0818605 294.75655,50.0818605 C294.082178,50.0782862 293.418635,50.2485989 292.832096,50.575814 L292.457424,49.4874419 C293.245867,49.0846869 294.12359,48.8804521 295.012009,48.8930233 C297.311135,48.8930233 297.966812,50.2576744 297.966812,51.7060465 L298.009389,54 Z M296.246725,52.3255814 C294.969432,52.3255814 293.743231,52.56 293.743231,53.5730233 C293.726413,53.8421098 293.831472,54.1047372 294.03023,54.2904624 C294.228987,54.4761877 294.5011,54.5660016 294.773581,54.535814 C295.395973,54.5554939 295.962973,54.1860891 296.187118,53.6148837 C296.226304,53.4958769 296.246414,53.3715991 296.246725,53.2465116 L296.246725,52.3255814 Z M301.824236,50.3246512 L301.764629,50.3246512 L301.705022,49.0437209 L300.121179,49.0437209 C300.163755,49.6465116 300.180786,50.2911628 300.180786,51.2037209 L300.180786,55.7330233 L301.986026,55.7330233 L301.986026,52.2753488 C301.99088,52.0982069 302.010819,51.921776 302.045633,51.747907 C302.18199,50.9836392 302.875225,50.4383772 303.663537,50.4753488 C303.840729,50.4758382 304.017485,50.4926559 304.191485,50.5255814 L304.191485,48.9348837 C303.155533,48.72622 302.128772,49.3290121 301.824236,50.3246512 Z M309.104803,50.215814 C309.572653,50.2049601 310.037377,50.2934862 310.467249,50.4753488 L310.79083,49.2111628 C310.235803,48.99359 309.642664,48.8854912 309.045197,48.8930233 C306.490611,48.8930233 305.060044,50.4586047 305.060044,52.467907 C305.060044,54.4772093 306.516157,55.8837209 308.747162,55.8837209 C309.441884,55.8919664 310.132074,55.7727172 310.782314,55.532093 L310.526856,54.2762791 C310.076514,54.4604309 309.592484,54.5516197 309.104803,54.544186 C307.942199,54.4730571 307.036319,53.525265 307.036319,52.38 C307.036319,51.234735 307.942199,50.2869429 309.104803,50.215814 Z M316.300218,48.8930233 C315.869381,48.8895091 315.444638,48.9931892 315.065502,49.1944186 C314.702787,49.3713446 314.392082,49.6364785 314.162882,49.9646512 L314.162882,45.9795349 L312.340611,45.9795349 L312.340611,55.7330233 L314.162882,55.7330233 L314.162882,51.7395349 C314.154508,51.5660271 314.180537,51.3925742 314.23952,51.2288372 C314.450939,50.6520034 315.0125,50.2715806 315.636026,50.2827907 C316.632314,50.2827907 317.015502,51.0111628 317.015502,51.9572093 L317.015502,55.707907 L318.820742,55.707907 L318.820742,51.7897674 C318.803712,49.6465116 317.526419,48.8930233 316.300218,48.8930233 Z M324.287555,55.7330233 L326.092795,55.7330233 L326.092795,46.4734884 L324.287555,46.4734884 L324.287555,55.7330233 Z M332.343013,48.8930233 C331.431743,48.8604728 330.569466,49.2986495 330.069432,50.0483721 L330.018341,50.0483721 L329.933188,49.0437209 L328.349345,49.0437209 C328.349345,49.6213953 328.400437,50.2660465 328.400437,51.0362791 L328.400437,55.7330233 L330.231223,55.7330233 L330.231223,51.8065116 C330.222416,51.6198788 330.245442,51.4331129 330.299345,51.2539535 C330.513433,50.6659737 331.077706,50.2716087 331.712882,50.2660465 C332.700655,50.2660465 333.083843,50.9944186 333.083843,51.9404651 L333.083843,55.7162791 L334.889083,55.7162791 L334.889083,51.7646512 C334.897598,49.6465116 333.603275,48.8930233 332.351528,48.8930233 L332.343013,48.8930233 Z M339.776856,51.7395349 C338.865721,51.4381395 338.525109,51.2288372 338.525109,50.8018605 C338.525109,50.3748837 338.874236,50.0986047 339.521397,50.0986047 C340.050197,50.1095305 340.569143,50.241385 341.037118,50.4837209 L341.39476,49.2948837 C340.800486,49.0225147 340.151474,48.8851661 339.495852,48.8930233 C337.835371,48.8930233 336.787991,49.8139535 336.787991,50.9944186 C336.787991,51.7813953 337.358515,52.4930233 338.763537,52.9451163 C339.615066,53.2381395 339.938646,53.4725581 339.938646,53.9246512 C339.938646,54.3767442 339.581004,54.6613953 338.789083,54.6613953 C338.146788,54.6436886 337.517331,54.480375 336.949782,54.184186 L336.60917,55.4316279 C337.284462,55.7571173 338.028588,55.9206543 338.780568,55.9088372 C340.679476,55.9088372 341.692795,55.0213953 341.692795,53.8074419 C341.684279,52.7944186 341.079694,52.1748837 339.785371,51.7395349 L339.776856,51.7395349 Z M345.465066,47.3274419 L343.702402,47.8046512 L343.702402,49.0437209 L342.697598,49.0437209 L342.697598,50.307907 L343.727948,50.307907 L343.727948,53.455814 C343.660273,54.125066 343.85862,54.794104 344.281441,55.3227907 C344.707466,55.7065274 345.271012,55.9082812 345.848253,55.8837209 C346.289473,55.8970826 346.729851,55.837655 347.151092,55.707907 L347.151092,54.4186047 C346.920806,54.4796966 346.682777,54.5078925 346.444323,54.5023256 C345.754585,54.5023256 345.516157,54.0753488 345.516157,53.2632558 L345.516157,50.307907 L347.219214,50.307907 L347.219214,49.0437209 L345.516157,49.0437209 L345.465066,47.3274419 Z M348.777511,55.6995349 L350.599782,55.6995349 L350.599782,49.0018605 L348.777511,49.0018605 L348.777511,55.6995349 Z M349.697162,46.2223256 C349.436375,46.2037927 349.179431,46.2922979 348.987428,46.4667951 C348.795425,46.6412924 348.685518,46.886191 348.683843,47.1432558 C348.749991,47.6438683 349.183708,48.0184776 349.697162,48.0184776 C350.210615,48.0184776 350.644332,47.6438683 350.71048,47.1432558 C350.71136,46.8853764 350.602225,46.6389486 350.409617,46.463901 C350.217008,46.2888534 349.958574,46.2012248 349.697162,46.2223256 Z M354.806332,47.2939535 L353.035153,47.7711628 L353.035153,49.0102326 L352.06441,49.0102326 L352.06441,50.2744186 L353.09476,50.2744186 L353.09476,53.4223256 C353.025823,54.093033 353.227658,54.7635205 353.656769,55.2893023 C354.079683,55.6725489 354.640437,55.8744001 355.215066,55.8502326 C355.65907,55.863431 356.10222,55.8040176 356.526419,55.6744186 L356.526419,54.3851163 C356.296133,54.4462082 356.058105,54.4744041 355.819651,54.4688372 C355.129913,54.4688372 354.9,54.0418605 354.9,53.2297674 L354.9,50.307907 L356.603057,50.307907 L356.603057,49.0437209 L354.9,49.0437209 L354.806332,47.2939535 Z M364.530786,49.0102326 L362.717031,49.0102326 L362.717031,53.0874419 C362.716042,53.2652019 362.68139,53.4412262 362.614847,53.6065116 C362.376526,54.1489246 361.836285,54.5030288 361.235371,54.5106977 C360.273144,54.5106977 359.889956,53.7990698 359.889956,52.6855814 L359.889956,49.0437209 L358.084716,49.0437209 L358.084716,52.9702326 C358.084716,55.1553488 359.276856,55.8837209 360.58821,55.8837209 C361.506741,55.9187414 362.376484,55.4768776 362.878821,54.72 L362.972489,55.7330233 L364.556332,55.7330233 C364.556332,55.1888372 364.50524,54.5274419 364.50524,53.732093 L364.530786,49.0102326 Z M368.788428,47.2939535 L367.017249,47.7711628 L367.017249,49.0102326 L365.995415,49.0102326 L365.995415,50.2744186 L367.017249,50.2744186 L367.017249,53.4223256 C366.948312,54.093033 367.150147,54.7635205 367.579258,55.2893023 C368.002669,55.6717473 368.563073,55.8734725 369.137555,55.8502326 C369.581601,55.8642168 370.024883,55.8047857 370.448908,55.6744186 L370.448908,54.3851163 C370.218448,54.4453182 369.980549,54.4734988 369.74214,54.4688372 C369.043886,54.4688372 368.813974,54.0418605 368.813974,53.2297674 L368.813974,50.307907 L370.517031,50.307907 L370.517031,49.0437209 L368.813974,49.0437209 L368.788428,47.2939535 Z M378.15524,52.1162791 C378.155655,52.3547102 378.135716,52.5927549 378.095633,52.827907 L373.35262,52.827907 C373.403712,54.0418605 374.417031,54.5609302 375.566594,54.5609302 C376.240951,54.5778127 376.912927,54.4757339 377.550655,54.2595349 L377.814629,55.4316279 C377.011652,55.714786 376.164175,55.8564912 375.311135,55.8502326 C372.986463,55.8502326 371.624017,54.5106977 371.624017,52.4595349 C371.551121,51.5124714 371.890675,50.5795194 372.558149,49.8929321 C373.225623,49.2063448 374.158228,48.8307082 375.123799,48.8595349 C377.422926,48.8930233 378.180786,50.6762791 378.180786,52.1497674 L378.15524,52.1162791 Z M376.452183,51.6474419 C376.517142,51.2250119 376.390216,50.79584 376.105,50.4735189 C375.819785,50.1511977 375.405034,49.9682227 374.970524,49.9730233 C374.029952,49.9730233 373.267467,50.722686 373.267467,51.6474419 L376.452183,51.6474419 Z M160.385371,71.824186 L160.930349,71.824186 L160.930349,0 L160.385371,0 L160.385371,71.824186 Z" fill="#000000"></path>
                            <path d="M15.14869,45.9209302 C15.1521334,46.8570353 14.5807871,47.7026934 13.7018016,48.062491 C12.8228161,48.4222886 11.8098835,48.2251278 11.1366317,47.5631972 C10.4633799,46.9012666 10.262847,45.9053673 10.6287983,45.0411625 C10.9947496,44.1769578 11.8548713,43.6152191 12.8069869,43.6186047 C14.1002738,43.6186047 15.14869,44.6493909 15.14869,45.9209302 Z M97.2104803,45.3851163 C98.3344978,44.7823256 98.9816594,42.9655814 98.6325328,41.3665116 C98.2834061,39.7674419 97.1338428,39.055814 96.0779476,39.692093 C95.0220524,40.3283721 94.4259825,42.0613953 94.7325328,43.5934884 C95.039083,45.1255814 96.1120087,45.9460465 97.2104803,45.3851163 Z M122.245415,24.1702326 C120.513435,25.2657184 119.714608,27.3465037 120.278384,29.2939535 C120.541289,30.1706269 121.210711,30.8732288 122.083326,31.1883574 C122.955942,31.503486 123.928769,31.3939516 124.706332,30.8930233 C126.608072,29.833135 127.490323,27.6051368 126.818122,25.56 C126.518444,24.6746385 125.805578,23.9839667 124.900775,23.7023466 C123.995972,23.4207265 123.008714,23.5822346 122.245415,24.1367442 L122.245415,24.1702326 Z M112.299563,37.624186 L106.594323,40.6967442 L138.952402,57.0809302 L112.299563,37.624186 Z M94.9709607,63.9544186 L106.594323,40.6967442 L104.891266,33.932093 L94.9709607,63.9544186 Z M124.544541,1.9172093 L110.298472,30.6083721 L112.299563,37.624186 L124.544541,1.9172093 Z M90.8155022,23.3665116 L104.874236,33.932093 L110.298472,30.5832558 L90.8155022,23.3665116 Z" fill="#00AEEF"></path>
                            <path d="M84.480131,36.6027907 L88.8144105,36.6027907 L88.8144105,49.1609302 L84.480131,49.1609302 L84.480131,36.6027907 Z M76.620524,44.2381395 C78.7650288,44.2381395 80.5034934,42.5289085 80.5034934,40.4204651 C80.5034934,38.3120218 78.7650288,36.6027907 76.620524,36.6027907 L62.5447598,36.6027907 L62.5447598,49.1609302 L66.8790393,49.1609302 L66.8790393,39.2986047 L74.9941048,39.2986047 C75.6242882,39.2986047 76.1351528,39.8008787 76.1351528,40.4204651 C76.1351528,41.0400515 75.6242882,41.5423256 74.9941048,41.5423256 L67.9604803,41.5423256 L67.9604803,44.2381395 L70.710917,44.2381395 L76.8759825,49.1693023 L82.4364629,49.1693023 L75.6242358,44.2381395 L76.620524,44.2381395 Z M44.3731441,39.2986047 L50.759607,39.2986047 L50.759607,49.1693023 L55.0938865,49.1693023 L55.0938865,39.2986047 L61.4803493,39.2986047 L61.4803493,36.6027907 L44.3731441,36.6027907 L44.3731441,39.2986047 Z M40.2517467,41.5423256 L30.8253275,41.5423256 C30.1951441,41.5423256 29.6842795,41.0400515 29.6842795,40.4204651 C29.6842795,39.8008787 30.1951441,39.2986047 30.8253275,39.2986047 L43.2917031,39.2986047 L43.2917031,36.6111628 L29.2159389,36.6111628 C27.7868512,36.5453108 26.4367015,37.2574119 25.7021193,38.4644349 C24.967537,39.6714578 24.967537,41.1778445 25.7021193,42.3848674 C26.4367015,43.5918904 27.7868512,44.3039915 29.2159389,44.2381395 L38.6423581,44.2381395 C39.0719836,44.2015472 39.4858891,44.4062126 39.7121729,44.7671349 C39.9384566,45.1280572 39.9384566,45.5835707 39.7121729,45.944493 C39.4858891,46.3054153 39.0719836,46.5100807 38.6423581,46.4734884 L25.2818777,46.4734884 L27.5724891,49.1693023 L40.2517467,49.1693023 C42.3830199,49.1693829 44.1160208,47.4804699 44.1347162,45.3851163 C44.1347162,45.2511628 44.1347162,45.1172093 44.1347162,44.9916279 C43.9411438,43.0282281 42.2580652,41.5331232 40.2517467,41.5423256 Z M10.6441048,36.6111628 L0,49.1693023 L4.87074236,49.1693023 L12.8069869,39.2986047 L20.7347162,49.1693023 L26.1504367,49.1693023 L15.480786,36.6111628 L10.6441048,36.6111628 Z M116.829694,1.18883721 L106.262227,28.1218605 L109.719432,29.4111628 L116.829694,1.18883721 Z M104.056769,23.5339535 C105.376763,22.4892911 105.977817,20.7976258 105.60655,19.172093 C105.505149,18.5303323 105.043988,17.999817 104.415016,17.8013636 C103.786044,17.6029101 103.097012,17.770516 102.634716,18.2344186 C101.419861,19.2715966 100.861315,20.8679727 101.170087,22.4204651 C101.208121,23.0726546 101.628465,23.6435479 102.246755,23.8827481 C102.865044,24.1219482 103.568371,23.9857745 104.048253,23.5339535 L104.056769,23.5339535 Z M113.466157,37.1051163 L143.439956,45.9795349 L115.169214,32.132093 L113.466157,37.1051163 Z M103.716157,34.5013953 L89.4786026,30.3153488 L102.251528,38.8297674 L103.716157,34.5013953 Z M100.480349,68.492093 L110.647598,43.8111628 L107.139301,42.0362791 L100.480349,68.492093 Z M113.014847,50.4083721 C111.507642,51.0446512 110.715721,53.1125581 111.226638,55.0716279 C111.737555,57.0306977 113.398035,58.2781395 114.973362,57.7255814 C116.54869,57.1730233 117.468341,54.9711628 116.880786,52.8865116 C116.293231,50.8018605 114.556114,49.7469767 113.014847,50.4083721 Z M127.209825,15.1451163 L128.350873,15.1451163 L128.350873,12.3739535 L129.534498,12.3739535 L129.534498,11.4697674 L126.043231,11.4697674 L126.043231,12.3739535 L127.209825,12.3739535 L127.209825,15.1451163 Z M130.982096,12.3572093 L131.69738,15.1451163 L132.548908,15.1451163 L133.272707,12.3572093 L133.272707,15.1451163 L134.217904,15.1451163 L134.217904,11.4697674 L132.702183,11.4697674 L132.123144,13.6967442 L131.561135,11.4697674 L130.0369,11.4697674 L130.0369,15.1283721 L130.982096,15.1283721 L130.982096,12.3572093 Z" fill="#004282"></path>
                        </g>
                    </g>
                </g>
            </g>
        </g>
    </g>
</svg>